<?xml version="1.0" encoding="utf-8"?>
<svg viewBox="0 0 83.6 101.15" xmlns="http://www.w3.org/2000/svg">
  <defs>
    <style>.cls-1{fill:#1f2358;}</style>
  </defs>
  <g id="Layer_2" data-name="Layer 2" style="" transform="matrix(1, 0, 0.006783, 1, -1.430668, 15.770699)">
    <g id="Layer_1-2" data-name="Layer 1">
      <circle class="cls-1" cx="24.28" cy="8.65" r="8.65"/>
      <polygon class="cls-1" points="32.37 26.98 14.37 26.98 14.37 28.12 16.22 29.11 16.22 68.27 14.37 69.26 14.37 70.4 34.2 70.4 34.2 69.26 32.37 68.27 32.37 26.98"/>
      <path class="cls-1" d="M69,68.89c-2.52,0-2.68-3-2.68-6.22V51.62c0-13.13-8.65-18-17.39-18.36v-.1c7.24-.49,16.61-4.54,16.61-16C65.37,5.26,55.5,0,46.38,0h-3a.66.66,0,0,0-.67.64v.1a.66.66,0,0,0,.67.64h1.07c4.64,0,6.37,9.68,6.37,15.69,0,5.7-1.49,15.4-6.53,15.4h-.91a.66.66,0,0,0-.67.64h0a.65.65,0,0,0,.67.64h.91c4.09,0,5.9,2.87,6.06,9.68.08,4,0,8.48,0,12.92,0,9,4.72,14.51,13.45,14.51C67.78,70.86,70.06,68.89,69,68.89Z"/>
    </g>
  </g>
</svg>