<svg xmlns="http://www.w3.org/2000/svg" viewBox="0 0 83.6 101.15"><defs><style>.cls-1{fill:#1f2358;}</style></defs><g id="Layer_2" data-name="Layer 2"><g id="Layer_1-2" data-name="Layer 1"><circle class="cls-1" cx="24.28" cy="8.65" r="8.65"/><polygon class="cls-1" points="32.37 26.98 14.37 26.98 14.37 28.12 16.22 29.11 16.22 68.27 14.37 69.26 14.37 70.4 34.2 70.4 34.2 69.26 32.37 68.27 32.37 26.98"/><path class="cls-1" d="M69,68.89c-2.52,0-2.68-3-2.68-6.22V51.62c0-13.13-8.65-18-17.39-18.36v-.1c7.24-.49,16.61-4.54,16.61-16C65.37,5.26,55.5,0,46.38,0h-3a.66.66,0,0,0-.67.64v.1a.66.66,0,0,0,.67.64h1.07c4.64,0,6.37,9.68,6.37,15.69,0,5.7-1.49,15.4-6.53,15.4h-.91a.66.66,0,0,0-.67.64h0a.65.65,0,0,0,.67.64h.91c4.09,0,5.9,2.87,6.06,9.68.08,4,0,8.48,0,12.92,0,9,4.72,14.51,13.45,14.51C67.78,70.86,70.06,68.89,69,68.89Z"/><path class="cls-1" d="M4.34,98.66H0V77.46H4.34Z"/><path class="cls-1" d="M18.51,82.76v3.82H17.35a4.46,4.46,0,0,0-3.12,1,3.93,3.93,0,0,0-1.15,3.09v7.94H8.74V82.76h4v1.93a5.24,5.24,0,0,1,4.37-2.12A4.69,4.69,0,0,1,18.51,82.76Z"/><path class="cls-1" d="M25.33,75.05A2.51,2.51,0,0,1,26.15,77a2.47,2.47,0,0,1-.82,1.89,2.77,2.77,0,0,1-2,.77,2.73,2.73,0,0,1-2-.77A2.5,2.5,0,0,1,20.59,77a2.54,2.54,0,0,1,.81-1.93,2.69,2.69,0,0,1,2-.77A2.73,2.73,0,0,1,25.33,75.05Zm.21,23.61H21.21V82.76h4.33Z"/><path class="cls-1" d="M64.55,91.66a7.33,7.33,0,1,1-14.65,0v-8.9h4.33V92a2.88,2.88,0,0,0,3,3,2.92,2.92,0,0,0,2.11-.83A3,3,0,0,0,60.21,92V82.76h4.34Z"/><path class="cls-1" d="M83.31,92.17H72.13a4.07,4.07,0,0,0,1.59,2.33,5,5,0,0,0,2.91.82,7.15,7.15,0,0,0,4.43-1.61l1.8,3A9.62,9.62,0,0,1,76.5,99a8.57,8.57,0,0,1-6.23-2.39,7.91,7.91,0,0,1-2.48-5.93,8.21,8.21,0,0,1,8.32-8.32,7.2,7.2,0,0,1,7.49,7.39A10.46,10.46,0,0,1,83.31,92.17Zm-9.77-5.4a4.49,4.49,0,0,0-1.41,2.35h7.26a3,3,0,0,0-1-2.35A3.56,3.56,0,0,0,76,85.91,3.67,3.67,0,0,0,73.54,86.77Z"/><rect class="cls-1" x="37.6" y="97.67" width="8.33" height="3.48"/><path class="cls-1" d="M37.6,99.46A8.45,8.45,0,1,1,46.07,91,8.47,8.47,0,0,1,37.6,99.46Zm0-12.9A4.46,4.46,0,1,0,42.08,91,4.47,4.47,0,0,0,37.6,86.56Z"/></g></g></svg>