<svg id="graph-svgrepo-com" xmlns="http://www.w3.org/2000/svg" width="88.944" height="88.944" viewBox="0 0 88.944 88.944">
  <path id="Path_5" data-name="Path 5" d="M87.462,83.015H5.93V1.482a1.482,1.482,0,1,0-2.965,0V83.015H1.482a1.482,1.482,0,0,0,0,2.965H2.965v1.482a1.482,1.482,0,1,0,2.965,0V85.98H87.462a1.482,1.482,0,0,0,0-2.965Z" fill="#1e2358"/>
  <path id="Path_6" data-name="Path 6" d="M7.482,29.965h2.965a1.482,1.482,0,1,0,0-2.965H7.482a1.482,1.482,0,0,0,0,2.965Z" transform="translate(2.894 13.025)" fill="#1e2358"/>
  <path id="Path_7" data-name="Path 7" d="M7.482,25.965h2.965a1.482,1.482,0,1,0,0-2.965H7.482a1.482,1.482,0,1,0,0,2.965Z" transform="translate(2.894 11.095)" fill="#1e2358"/>
  <path id="Path_8" data-name="Path 8" d="M7.482,21.965h2.965a1.482,1.482,0,1,0,0-2.965H7.482a1.482,1.482,0,1,0,0,2.965Z" transform="translate(2.894 9.166)" fill="#1e2358"/>
  <path id="Path_9" data-name="Path 9" d="M7.482,17.965h2.965a1.482,1.482,0,1,0,0-2.965H7.482a1.482,1.482,0,1,0,0,2.965Z" transform="translate(2.894 7.236)" fill="#1e2358"/>
  <path id="Path_10" data-name="Path 10" d="M7.482,13.965h2.965a1.482,1.482,0,1,0,0-2.965H7.482a1.482,1.482,0,1,0,0,2.965Z" transform="translate(2.894 5.306)" fill="#1e2358"/>
  <path id="Path_11" data-name="Path 11" d="M7.482,9.965h2.965a1.482,1.482,0,1,0,0-2.965H7.482a1.482,1.482,0,0,0,0,2.965Z" transform="translate(2.894 3.377)" fill="#1e2358"/>
  <path id="Path_12" data-name="Path 12" d="M7.482,5.965h2.965a1.482,1.482,0,1,0,0-2.965H7.482a1.482,1.482,0,0,0,0,2.965Z" transform="translate(2.894 1.447)" fill="#1e2358"/>
  <path id="Path_13" data-name="Path 13" d="M13.908,62.006a8.88,8.88,0,0,0,6.579-14.86l5.227-5.227a8.837,8.837,0,0,0,11.929,0l6.727,6.727a8.886,8.886,0,1,0,14.4,1.726l12.9-12.9a8.79,8.79,0,1,0-1.854-2.338l-12.9,12.9a8.855,8.855,0,0,0-10.2-1.241L39.494,39.58a8.893,8.893,0,1,0-15.635,0l-5.713,5.713a8.894,8.894,0,1,0-4.238,16.711Z" transform="translate(2.418 10.613)" fill="#1e2358"/>
</svg>
