<svg xmlns="http://www.w3.org/2000/svg" width="598.367" height="707.062" viewBox="0 0 598.367 707.062">
  <g id="Group_49" data-name="Group 49" transform="translate(-4172.211 1633)" opacity="0.05">
    <g id="Path_47" data-name="Path 47" transform="translate(4227.4 -1633)" fill="none">
      <path d="M270.69,0C424.438,0,563.264,177.5,540.775,398.033S357.186,707.062,203.437,707.062-55.188,600.813-55.188,398.033,116.941,0,270.69,0Z" stroke="none"/>
      <path d="M 270.6896057128906 3 C 252.1371459960938 3 232.8601379394531 5.9146728515625 213.39404296875 11.66302490234375 C 194.4725952148438 17.25054931640625 175.2941589355469 25.53448486328125 156.3916015625 36.2845458984375 C 137.822509765625 46.84503173828125 119.509521484375 59.7884521484375 101.9613342285156 74.7552490234375 C 84.50167846679688 89.646728515625 67.82443237304688 106.5187377929688 52.3927001953125 124.90283203125 C 36.82760620117188 143.44580078125 22.5496826171875 163.5047607421875 9.955596923828125 184.5225219726563 C -2.911407470703125 205.9959106445313 -14.03350830078125 228.4957275390625 -23.1015625 251.3970031738281 C -32.4649658203125 275.0439147949219 -39.6817626953125 299.2371826171875 -44.55157470703125 323.3049011230469 C -49.6190185546875 348.3496398925781 -52.1884765625 373.4917297363281 -52.1884765625 398.0329284667969 C -52.1884765625 410.513916015625 -51.7818603515625 422.8566284179688 -50.97991943359375 434.7182006835938 C -50.18701171875 446.4471740722656 -48.98638916015625 458.0181884765625 -47.4114990234375 469.1097412109375 C -45.85357666015625 480.0820007324219 -43.8880615234375 490.8766479492188 -41.56939697265625 501.1937255859375 C -39.27459716796875 511.4048461914063 -36.5731201171875 521.4188232421875 -33.54010009765625 530.9573974609375 C -30.53656005859375 540.4033813476563 -27.12841796875 549.6328125 -23.410400390625 558.3895263671875 C -19.72613525390625 567.06689453125 -15.64031982421875 575.5087890625 -11.2666015625 583.4808959960938 C -6.92913818359375 591.3868408203125 -2.1942138671875 599.038818359375 2.8065185546875 606.2243041992188 C 7.770233154296875 613.3565673828125 13.12631225585938 620.2166748046875 18.72613525390625 626.6140747070313 C 40.93685913085938 651.98828125 68.0526123046875 671.471923828125 99.32015991210938 684.5238037109375 C 130.3789672851563 697.488525390625 165.4090576171875 704.0621948242188 203.4373168945313 704.0621948242188 C 222.7030639648438 704.0621948242188 241.9727783203125 702.64892578125 260.7110595703125 699.861572265625 C 279.9741516113281 696.9962158203125 298.8925170898438 692.6450805664063 316.9404907226563 686.9290161132813 C 335.6026000976563 681.0185546875 353.5953369140625 673.564208984375 370.4191284179688 664.773193359375 C 387.8873291015625 655.6453857421875 404.3863220214844 644.9225463867188 419.457763671875 632.9024658203125 C 427.2140502929688 626.716552734375 434.7276916503906 620.0764770507813 441.7898559570313 613.1668090820313 C 449.0004272460938 606.1119384765625 455.9302368164063 598.590087890625 462.3868713378906 590.810302734375 C 468.9815979003906 582.8640747070313 475.2578735351563 574.4375610351563 481.0412292480469 565.764892578125 C 486.9498596191406 556.9043579101563 492.5021362304688 547.549560546875 497.5439758300781 537.96044921875 C 502.6956787109375 528.1622924804688 507.4531555175781 517.8552856445313 511.6842346191406 507.325927734375 C 516.0078125 496.5663757324219 519.8988037109375 485.2830810546875 523.249267578125 473.7894592285156 C 526.672607421875 462.0453491210938 529.6246948242188 449.7619018554688 532.0236206054688 437.2801818847656 C 534.4743041992188 424.5286560058594 536.4146728515625 411.2215576171875 537.7905883789063 397.7285461425781 C 539.3690795898438 382.2501831054688 540.1724853515625 366.6152648925781 540.1787109375 351.2579956054688 C 540.1846923828125 336.2544555664063 539.4299926757813 321.1676330566406 537.9356079101563 306.4166564941406 C 535.0313110351563 277.7489929199219 529.28466796875 249.6174621582031 520.8554077148438 222.803466796875 C 512.7073974609375 196.8841857910156 502.0405883789063 172.1409301757813 489.1510620117188 149.2607421875 C 476.5398864746094 126.8745727539063 461.831787109375 106.3192138671875 445.4351501464844 88.16546630859375 C 433.3984069824219 74.83880615234375 420.4051513671875 62.7711181640625 406.81640625 52.29766845703125 C 393.1855163574219 41.79156494140625 378.8182373046875 32.78436279296875 364.1138916015625 25.526123046875 C 349.239501953125 18.18402099609375 333.856689453125 12.55181884765625 318.3927001953125 8.7860107421875 C 302.6270751953125 4.94671630859375 286.5774230957031 3 270.6896057128906 3 M 270.6896057128906 0 C 424.4379577636719 0 563.264404296875 177.49853515625 540.775146484375 398.0329284667969 C 518.2857666015625 618.5671997070313 357.1856079101563 707.0621948242188 203.4373168945313 707.0621948242188 C 49.68905639648438 707.0621948242188 -55.1884765625 600.812744140625 -55.1884765625 398.0329284667969 C -55.1884765625 195.2530822753906 116.9412231445313 0 270.6896057128906 0 Z" stroke="none" fill="#1f2358"/>
    </g>
    <g id="Path_48" data-name="Path 48" transform="translate(4292.131 -1506.247)" fill="none">
      <path d="M189.7,0C305.238,0,409.562,126.493,392.662,283.655S254.7,503.883,139.162,503.883s-194.35-75.718-194.35-220.228S74.162,0,189.7,0Z" stroke="none"/>
      <path d="M 189.7000274658203 3 C 175.8155670166016 3 161.3868408203125 5.069183349609375 146.8145751953125 9.149993896484375 C 132.6430969238281 13.11865234375 118.27783203125 19.0030517578125 104.1178283691406 26.63992309570313 C 90.2032470703125 34.14437866210938 76.47988891601563 43.34286499023438 63.32904052734375 53.979736328125 C 50.2425537109375 64.564453125 37.7423095703125 76.5572509765625 26.17556762695313 89.625 C 14.5089111328125 102.8055114746094 3.807220458984375 117.0633239746094 -5.632110595703125 132.0023803710938 C -15.27456665039063 147.2627868652344 -23.60897827148438 163.2518005371094 -30.40377807617188 179.5251770019531 C -37.4178466796875 196.3235778808594 -42.82357788085938 213.5086669921875 -46.4708251953125 230.6030578613281 C -50.2647705078125 248.3848571777344 -52.18850708007813 266.2342529296875 -52.18850708007813 283.6554565429688 C -52.18850708007813 301.3089294433594 -50.98431396484375 318.3025207519531 -48.60943603515625 334.1642456054688 C -46.2864990234375 349.6789245605469 -42.79241943359375 364.4534606933594 -38.224365234375 378.077392578125 C -33.7467041015625 391.431640625 -28.14068603515625 403.9685974121094 -21.56216430664063 415.33984375 C -15.09378051757813 426.5206604003906 -7.548370361328125 436.8111877441406 0.864501953125 445.9257202148438 C 17.47604370117188 463.9227294921875 37.76116943359375 477.7437744140625 61.15631103515625 487.0049133300781 C 84.41970825195313 496.2138671875 110.6645050048828 500.8831787109375 139.1617736816406 500.8831787109375 C 153.6103668212891 500.8831787109375 168.0616302490234 499.8780517578125 182.1141052246094 497.8957824707031 C 196.5579071044922 495.8583374023438 210.7425689697266 492.7645263671875 224.2740325927734 488.7003173828125 C 252.9581604003906 480.0851135253906 278.80322265625 467.1695861816406 301.0912475585938 450.3124389648438 C 325.1889038085938 432.086669921875 344.8561096191406 409.4105834960938 359.5465698242188 382.9142456054688 C 363.4024963378906 375.9593811035156 366.9635009765625 368.6432495117188 370.1304931640625 361.1690673828125 C 373.3671569824219 353.5306396484375 376.2800903320313 345.5199890136719 378.7884216308594 337.3597412109375 C 381.3518371582031 329.0200500488281 383.5625610351563 320.296875 385.3590393066406 311.432373046875 C 387.19482421875 302.3742065429688 388.6483154296875 292.9207763671875 389.6791076660156 283.334716796875 C 391.9493103027344 262.2232055664063 392.054443359375 241.0619201660156 389.99169921875 220.4386596679688 C 388.013427734375 200.6604614257813 384.0280456542969 181.2115173339844 378.1460876464844 162.6322631835938 C 372.4586181640625 144.6671142578125 364.9785766601563 127.4432678222656 355.9136352539063 111.4391784667969 C 347.0501098632813 95.79058837890625 336.6734924316406 81.3072509765625 325.0722351074219 68.39151000976563 C 315.9125671386719 58.19412231445313 305.9548950195313 48.94485473632813 295.4758911132813 40.90078735351563 C 284.9758911132813 32.84051513671875 273.8639526367188 25.92257690429688 262.4487609863281 20.339111328125 C 250.9055023193359 14.69305419921875 238.9439697265625 10.35946655273438 226.8964233398438 7.458648681640625 C 214.6090393066406 4.5001220703125 202.0943603515625 3 189.7000274658203 3 M 189.7000274658203 0 C 305.2376403808594 0 409.5620422363281 126.4931945800781 392.6618957519531 283.6554565429688 C 375.7618408203125 440.8177795410156 254.6993713378906 503.8831787109375 139.1617736816406 503.8831787109375 C 23.62411499023438 503.8831787109375 -55.18850708007813 428.1651916503906 -55.18850708007813 283.6554565429688 C -55.18850708007813 139.1457824707031 74.162353515625 0 189.7000274658203 0 Z" stroke="none" fill="#1f2358"/>
    </g>
    <g id="Path_49" data-name="Path 49" transform="translate(4339.34 -1435.568)" fill="none">
      <path d="M116.2,0c80.861,0,153.874,90.589,142.046,203.142S161.692,360.86,80.831,360.86-55.188,306.634-55.188,203.142,35.34,0,116.2,0Z" stroke="none"/>
      <path d="M 116.2006988525391 3 C 106.571647644043 3 96.56099700927734 4.4696044921875 86.44679260253906 7.367919921875 C 76.59585571289063 10.19082641601563 66.60694885253906 14.37832641601563 56.75750732421875 19.81402587890625 C 47.06864929199219 25.16110229492188 37.51104736328125 31.71670532226563 28.35029602050781 39.2987060546875 C 19.22915649414063 46.84796142578125 10.5157470703125 55.40237426757813 2.452194213867188 64.724365234375 C -5.682998657226563 74.129150390625 -13.14555358886719 84.302978515625 -19.72804260253906 94.96316528320313 C -26.45225524902344 105.8528137207031 -32.26414489746094 117.2621154785156 -37.00234985351563 128.8741149902344 C -41.89254760742188 140.8586120605469 -45.6612548828125 153.1182708740234 -48.203857421875 165.3124084472656 C -50.84783935546875 177.9931182861328 -52.18850708007813 190.7209167480469 -52.18850708007813 203.1423187255859 C -52.18850708007813 228.1362609863281 -48.91390991210938 250.8027648925781 -42.4556884765625 270.51220703125 C -36.25634765625 289.4317016601563 -27.11114501953125 305.6785278320313 -15.27409362792969 318.8013305664063 C -3.739242553710938 331.589111328125 10.34614562988281 341.4095153808594 26.59085083007813 347.9898071289063 C 42.7596435546875 354.539306640625 61.00860595703125 357.8602294921875 80.83070373535156 357.8602294921875 C 90.89765167236328 357.8602294921875 100.9660491943359 357.1436767578125 110.7562484741211 355.73046875 C 120.8170013427734 354.2782592773438 130.6965484619141 352.0733032226563 140.1205444335938 349.1769714355469 C 160.0888061523438 343.0399169921875 178.0785522460938 333.8411560058594 193.5900573730469 321.8362121582031 C 210.3583984375 308.8585815429688 224.0447998046875 292.7103271484375 234.2691040039063 273.8399047851563 C 239.7026062011719 263.8116149902344 244.2117004394531 252.8876037597656 247.6710510253906 241.3712158203125 C 251.2859497070313 229.3371124267578 253.8403930664063 216.3695678710938 255.2633514404297 202.8287658691406 C 256.8685607910156 187.553466796875 256.9215393066406 172.2472076416016 255.4208068847656 157.3352203369141 C 253.9824981689453 143.0436096191406 251.1083984375 129.0034637451172 246.8784027099609 115.6047210693359 C 242.7900085449219 102.6544799804688 237.4244079589844 90.26235961914063 230.9306488037109 78.77276611328125 C 224.5822448730469 67.54031372070313 217.1636047363281 57.18072509765625 208.8807067871094 47.9818115234375 C 202.5482025146484 40.948974609375 195.6867523193359 34.57550048828125 188.4869537353516 29.03857421875 C 181.2742462158203 23.49160766601563 173.6563415527344 18.73382568359375 165.8448486328125 14.89736938476563 C 157.9506530761719 11.02032470703125 149.7790985107422 8.045562744140625 141.5571899414063 6.055877685546875 C 133.1783447265625 4.028167724609375 124.6471481323242 3 116.2006988525391 3 M 116.2006988525391 0 C 197.0615997314453 0 270.0746459960938 90.58920288085938 258.2468872070313 203.1423187255859 C 246.4190979003906 315.6954040527344 161.6916046142578 360.8602294921875 80.83070373535156 360.8602294921875 C -0.0301971435546875 360.8602294921875 -55.18850708007813 306.6341552734375 -55.18850708007813 203.1423187255859 C -55.18850708007813 99.65045166015625 35.33979797363281 0 116.2006988525391 0 Z" stroke="none" fill="#1f2358"/>
    </g>
    <g id="Path_50" data-name="Path 50" transform="translate(4404.026 -1312.348)" fill="none">
      <path d="M25.168,0c37.912,0,72.144,42.473,66.6,95.244S46.5,169.19,8.584,169.19s-63.773-25.424-63.773-73.946S-12.744,0,25.168,0Z" stroke="none"/>
      <path d="M 25.16769218444824 3.000015258789063 C 20.80159759521484 3.000015258789063 16.25576400756836 3.66827392578125 11.6564769744873 4.98626708984375 C 7.152763366699219 6.276840209960938 2.580787658691406 8.19415283203125 -1.932449340820313 10.6849365234375 C -6.388259887695313 13.14401245117188 -10.78654479980469 16.16122436523438 -15.00516510009766 19.65281677246094 C -19.21376037597656 23.13612365722656 -23.23540496826172 27.08460998535156 -26.95838165283203 31.38859558105469 C -30.7171630859375 35.73396301269531 -34.165283203125 40.43490600585938 -37.20697784423828 45.36086273193359 C -40.31349945068359 50.39176940917969 -42.99819183349609 55.66191101074219 -45.1865234375 61.02488708496094 C -47.44285583496094 66.55460357666016 -49.18138122558594 72.20943450927734 -50.35380554199219 77.83232116699219 C -51.57121276855469 83.67091369628906 -52.1884765625 89.52896118164063 -52.1884765625 95.24369812011719 C -52.1884765625 106.793342590332 -50.67983245849609 117.2536468505859 -47.70445251464844 126.3340606689453 C -44.86759185791016 134.9917449951172 -40.69121551513672 142.4169311523438 -35.29132843017578 148.4033813476563 C -30.04604339599609 154.2184295654297 -23.63887786865234 158.6849670410156 -16.24785614013672 161.6788482666016 C -8.857997894287109 164.6722717285156 -0.50323486328125 166.1900482177734 8.584381103515625 166.1900482177734 C 18.08138275146484 166.1900482177734 27.27652549743652 164.8439788818359 35.9144287109375 162.1891937255859 C 45.09243011474609 159.3684387207031 53.3563346862793 155.1440734863281 60.47659683227539 149.6334381103516 C 68.16217041015625 143.6853179931641 74.43580627441406 136.28271484375 79.123291015625 127.6313171386719 C 84.24619293212891 118.1763153076172 87.49609375 107.1740570068359 88.78276062011719 94.93017578125 C 89.52400207519531 87.87645721435547 89.54862213134766 80.809814453125 88.85588073730469 73.92650604248047 C 88.19245910644531 67.33434295654297 86.86712646484375 60.85929107666016 84.91668701171875 54.68122100830078 C 83.03314208984375 48.71503448486328 80.56198120117188 43.00736236572266 77.57185363769531 37.716796875 C 74.65249633789063 32.55146789550781 71.24256896972656 27.78932189941406 67.436767578125 23.56260681152344 C 64.53235626220703 20.33700561523438 61.38695526123047 17.41505432128906 58.08786010742188 14.87788391113281 C 54.78985977172852 12.341552734375 51.30867004394531 10.16709899902344 47.74100112915039 8.4149169921875 C 40.42507171630859 4.82183837890625 32.8303108215332 3.000015258789063 25.16769218444824 3.000015258789063 M 25.16769218444824 1.52587890625e-05 C 63.07950210571289 1.52587890625e-05 97.31181335449219 42.47293853759766 91.76633453369141 95.24369812011719 C 86.22085571289063 148.0144653320313 46.49619293212891 169.1900482177734 8.584381103515625 169.1900482177734 C -29.32742309570313 169.1900482177734 -55.1884765625 143.7660522460938 -55.1884765625 95.24369812011719 C -55.1884765625 46.72132110595703 -12.74411773681641 1.52587890625e-05 25.16769218444824 1.52587890625e-05 Z" stroke="none" fill="#1f2358"/>
    </g>
  </g>
</svg>
