<svg xmlns="http://www.w3.org/2000/svg" width="114.321" height="75.744" viewBox="0 0 114.321 75.744">
  <path id="cloud-computing-svgrepo-com" d="M91.839,104.367a34.925,34.925,0,0,0-69.357,0,22.481,22.481,0,1,0,0,44.962H91.84a22.481,22.481,0,1,0,0-44.962ZM36.19,134.912a3.932,3.932,0,1,1,3.932-3.932A3.932,3.932,0,0,1,36.19,134.912Zm20.97,0a3.932,3.932,0,1,1,3.932-3.932A3.932,3.932,0,0,1,57.161,134.912Zm20.97,0a3.932,3.932,0,1,1,3.932-3.932A3.932,3.932,0,0,1,78.131,134.912Z" transform="translate(0 -73.585)" fill="#1e2358"/>
</svg>
