<svg xmlns="http://www.w3.org/2000/svg" width="53.698" height="45.219" viewBox="0 0 53.698 45.219">
  <g id="Group_51" data-name="Group 51" transform="translate(891 -2096)">
    <path id="Subtraction_2" data-name="Subtraction 2" d="M21.668,16.017H5a5.006,5.006,0,0,1-5-5V5A5.006,5.006,0,0,1,5,0H48.7a5.006,5.006,0,0,1,5,5v6.015a5.006,5.006,0,0,1-5,5H32.03V14.3a3,3,0,0,0-3-3H24.667a3,3,0,0,0-3,3v1.711Z" transform="translate(-891 2103.537)" fill="#1e2358"/>
    <path id="Subtraction_3" data-name="Subtraction 3" d="M48.7,19.783H5a5.006,5.006,0,0,1-5-5V5A5.006,5.006,0,0,1,5,0H21.668V1.71a3,3,0,0,0,3,3H29.03a3,3,0,0,0,3-3V0H48.7a5.005,5.005,0,0,1,5,5v9.784A5.005,5.005,0,0,1,48.7,19.783Z" transform="translate(-891 2121.436)" fill="#1e2358"/>
    <rect id="Rectangle_14" data-name="Rectangle 14" width="23.552" height="5.652" rx="2.826" transform="translate(-875.927 2096)" fill="#1e2358"/>
  </g>
</svg>
