<svg xmlns="http://www.w3.org/2000/svg" xmlns:xlink="http://www.w3.org/1999/xlink" width="185" height="156" viewBox="0 0 185 156">
  <defs>
    <clipPath id="clip-path">
      <rect width="185" height="156" fill="none"/>
    </clipPath>
  </defs>
  <g id="Repeat_Grid_10" data-name="Repeat Grid 10" clip-path="url(#clip-path)">
    <g transform="translate(-1174 -665)">
      <circle id="Ellipse_11" data-name="Ellipse 11" cx="5" cy="5" r="5" transform="translate(1174 665)" fill="#1f2358"/>
    </g>
    <g transform="translate(-1140 -665)">
      <circle id="Ellipse_11-2" data-name="Ellipse 11" cx="5" cy="5" r="5" transform="translate(1174 665)" fill="#1f2358"/>
    </g>
    <g transform="translate(-1106 -665)">
      <circle id="Ellipse_11-3" data-name="Ellipse 11" cx="5" cy="5" r="5" transform="translate(1174 665)" fill="#1f2358"/>
    </g>
    <g transform="translate(-1072 -665)">
      <circle id="Ellipse_11-4" data-name="Ellipse 11" cx="5" cy="5" r="5" transform="translate(1174 665)" fill="#1f2358"/>
    </g>
    <g transform="translate(-1038 -665)">
      <circle id="Ellipse_11-5" data-name="Ellipse 11" cx="5" cy="5" r="5" transform="translate(1174 665)" fill="#1f2358"/>
    </g>
    <g transform="translate(-1004 -665)">
      <circle id="Ellipse_11-6" data-name="Ellipse 11" cx="5" cy="5" r="5" transform="translate(1174 665)" fill="#1f2358"/>
    </g>
    <g transform="translate(-1174 -631)">
      <circle id="Ellipse_11-7" data-name="Ellipse 11" cx="5" cy="5" r="5" transform="translate(1174 665)" fill="#1f2358"/>
    </g>
    <g transform="translate(-1140 -631)">
      <circle id="Ellipse_11-8" data-name="Ellipse 11" cx="5" cy="5" r="5" transform="translate(1174 665)" fill="#1f2358"/>
    </g>
    <g transform="translate(-1106 -631)">
      <circle id="Ellipse_11-9" data-name="Ellipse 11" cx="5" cy="5" r="5" transform="translate(1174 665)" fill="#1f2358"/>
    </g>
    <g transform="translate(-1072 -631)">
      <circle id="Ellipse_11-10" data-name="Ellipse 11" cx="5" cy="5" r="5" transform="translate(1174 665)" fill="#1f2358"/>
    </g>
    <g transform="translate(-1038 -631)">
      <circle id="Ellipse_11-11" data-name="Ellipse 11" cx="5" cy="5" r="5" transform="translate(1174 665)" fill="#1f2358"/>
    </g>
    <g transform="translate(-1004 -631)">
      <circle id="Ellipse_11-12" data-name="Ellipse 11" cx="5" cy="5" r="5" transform="translate(1174 665)" fill="#1f2358"/>
    </g>
    <g transform="translate(-1174 -597)">
      <circle id="Ellipse_11-13" data-name="Ellipse 11" cx="5" cy="5" r="5" transform="translate(1174 665)" fill="#1f2358"/>
    </g>
    <g transform="translate(-1140 -597)">
      <circle id="Ellipse_11-14" data-name="Ellipse 11" cx="5" cy="5" r="5" transform="translate(1174 665)" fill="#1f2358"/>
    </g>
    <g transform="translate(-1106 -597)">
      <circle id="Ellipse_11-15" data-name="Ellipse 11" cx="5" cy="5" r="5" transform="translate(1174 665)" fill="#1f2358"/>
    </g>
    <g transform="translate(-1072 -597)">
      <circle id="Ellipse_11-16" data-name="Ellipse 11" cx="5" cy="5" r="5" transform="translate(1174 665)" fill="#1f2358"/>
    </g>
    <g transform="translate(-1038 -597)">
      <circle id="Ellipse_11-17" data-name="Ellipse 11" cx="5" cy="5" r="5" transform="translate(1174 665)" fill="#1f2358"/>
    </g>
    <g transform="translate(-1004 -597)">
      <circle id="Ellipse_11-18" data-name="Ellipse 11" cx="5" cy="5" r="5" transform="translate(1174 665)" fill="#1f2358"/>
    </g>
    <g transform="translate(-1174 -563)">
      <circle id="Ellipse_11-19" data-name="Ellipse 11" cx="5" cy="5" r="5" transform="translate(1174 665)" fill="#1f2358"/>
    </g>
    <g transform="translate(-1140 -563)">
      <circle id="Ellipse_11-20" data-name="Ellipse 11" cx="5" cy="5" r="5" transform="translate(1174 665)" fill="#1f2358"/>
    </g>
    <g transform="translate(-1106 -563)">
      <circle id="Ellipse_11-21" data-name="Ellipse 11" cx="5" cy="5" r="5" transform="translate(1174 665)" fill="#1f2358"/>
    </g>
    <g transform="translate(-1072 -563)">
      <circle id="Ellipse_11-22" data-name="Ellipse 11" cx="5" cy="5" r="5" transform="translate(1174 665)" fill="#1f2358"/>
    </g>
    <g transform="translate(-1038 -563)">
      <circle id="Ellipse_11-23" data-name="Ellipse 11" cx="5" cy="5" r="5" transform="translate(1174 665)" fill="#1f2358"/>
    </g>
    <g transform="translate(-1004 -563)">
      <circle id="Ellipse_11-24" data-name="Ellipse 11" cx="5" cy="5" r="5" transform="translate(1174 665)" fill="#1f2358"/>
    </g>
    <g transform="translate(-1174 -529)">
      <circle id="Ellipse_11-25" data-name="Ellipse 11" cx="5" cy="5" r="5" transform="translate(1174 665)" fill="#1f2358"/>
    </g>
    <g transform="translate(-1140 -529)">
      <circle id="Ellipse_11-26" data-name="Ellipse 11" cx="5" cy="5" r="5" transform="translate(1174 665)" fill="#1f2358"/>
    </g>
    <g transform="translate(-1106 -529)">
      <circle id="Ellipse_11-27" data-name="Ellipse 11" cx="5" cy="5" r="5" transform="translate(1174 665)" fill="#1f2358"/>
    </g>
    <g transform="translate(-1072 -529)">
      <circle id="Ellipse_11-28" data-name="Ellipse 11" cx="5" cy="5" r="5" transform="translate(1174 665)" fill="#1f2358"/>
    </g>
    <g transform="translate(-1038 -529)">
      <circle id="Ellipse_11-29" data-name="Ellipse 11" cx="5" cy="5" r="5" transform="translate(1174 665)" fill="#1f2358"/>
    </g>
    <g transform="translate(-1004 -529)">
      <circle id="Ellipse_11-30" data-name="Ellipse 11" cx="5" cy="5" r="5" transform="translate(1174 665)" fill="#1f2358"/>
    </g>
  </g>
</svg>
