<svg xmlns="http://www.w3.org/2000/svg" viewBox="0 0 355.97 439.26"><defs><style>.cls-1{fill:#e0e0e0;}.cls-2{opacity:0.09;}.cls-3,.cls-7,.cls-8{fill:#1f2358;}.cls-4{opacity:0.8;}.cls-5{opacity:0.04;}.cls-10,.cls-14,.cls-15,.cls-16,.cls-6,.cls-9{fill:#fff;}.cls-19,.cls-7{opacity:0.3;}.cls-10,.cls-8,.cls-9{stroke:#1f2358;}.cls-10,.cls-13,.cls-16,.cls-8,.cls-9{stroke-miterlimit:10;}.cls-13,.cls-9{stroke-width:2px;}.cls-11{fill:#263238;}.cls-12,.cls-14{opacity:0.4;}.cls-13,.cls-16{stroke:#fff;}.cls-15{opacity:0.6;}.cls-16{stroke-width:0.5px;}.cls-17{opacity:0.2;}.cls-18{fill:#f5f5f5;}</style></defs><g id="Layer_2" data-name="Layer 2"><g id="Background_Complete" data-name="Background Complete"><path class="cls-1" d="M251.52,57.07h65.75s-5.81-10.58-22.73-9c-16.17,1.47-17-5.2-25.21-6S254.26,47.48,251.52,57.07Z"/><g class="cls-2"><path class="cls-3" d="M79.66,230.89s-6.58,3.56,3,17.32S98.5,268.57,98.5,268.57s1.81,3.25-1,4.19-9.32.79-10.12,4.51,2.31,7,8.13,9.24,18.4,7.78,19.54,8.28,2.36,1.95.54,2.89-15.93,4.41-13.89,11S121,319,122.9,319.46s2.41,1.14,2.4,2.14-4.87,1.72-8.84,2.87-8.38,3.18-6.88,6.89,12.35,10.44,36.33,9.5L157,339.69l4.72-10.15c8.78-22.33,6-34.8,3-37.43s-6.38.86-8.77,4.23-4.67,7.72-5.62,7.4-1.43-1.05-1.23-3,2.37-19.45-3.19-23.56-13.48,8.09-15,9.49-2.45-.25-2.55-1.46-1.15-14.92-1.4-21.17-2.13-10.24-6-10.73c-3.77-.46-5.78,5.73-7.59,8.08S109,261,109,261s-4.18-8.07-14-21.65S79.54,231,79.54,231"/><path class="cls-3" d="M157.92,342.21c-7.19-10-19.66-28-30.45-43.39s-20.56-29.3-27.7-39.34c-3.56-5-6.45-9.06-8.46-11.88L89,244.37l-.59-.85-.19-.29.22.27.62.83,2.35,3.19c2,2.78,5,6.81,8.55,11.82,7.19,10,17,23.9,27.78,39.28S151,332,158.12,342.07"/><path class="cls-3" d="M96.46,277.83a2.79,2.79,0,0,1,.8.11c.51.09,1.24.24,2.15.43,1.81.4,4.29,1,7,1.73l7,1.87,2.12.55a4.07,4.07,0,0,1,.77.23,3,3,0,0,1-.8-.1c-.51-.09-1.24-.24-2.14-.45-1.81-.41-4.29-1.05-7-1.77l-7-1.82-2.12-.54A4.9,4.9,0,0,1,96.46,277.83Z"/><path class="cls-3" d="M117,281.94c-.09,0,.94-5.19,2.3-11.56s2.54-11.51,2.63-11.49-.93,5.2-2.29,11.56S117.05,282,117,281.94Z"/><path class="cls-3" d="M132.46,306.32a4.48,4.48,0,0,1,.35-.74l1.06-2c.9-1.66,2.12-4,3.38-6.55s2.32-5,3.08-6.7l.89-2.05a4.38,4.38,0,0,1,.37-.74,4.48,4.48,0,0,1-.24.79c-.18.5-.45,1.22-.8,2.09-.7,1.76-1.72,4.16-3,6.76s-2.52,4.89-3.47,6.52c-.48.82-.87,1.47-1.16,1.92A3.36,3.36,0,0,1,132.46,306.32Z"/><path class="cls-3" d="M113.1,306.68a4,4,0,0,1,.75-.09l2.07-.12c1.74-.09,4.15-.18,6.81-.26s5.08-.14,6.82-.17h2.07a2.87,2.87,0,0,1,.76.05,4,4,0,0,1-.76.09l-2.06.12c-1.74.08-4.15.18-6.82.26s-5.07.14-6.81.16h-2.07A3.26,3.26,0,0,1,113.1,306.68Z"/><path class="cls-3" d="M124.05,329.94a5.92,5.92,0,0,1,1-.11l2.64-.16c2.23-.12,5.32-.27,8.73-.41s6.5-.24,8.74-.3l2.65,0a5.67,5.67,0,0,1,1,0,4.78,4.78,0,0,1-1,.11l-2.64.16c-2.24.13-5.32.27-8.73.41s-6.5.25-8.74.31L125,330A4.94,4.94,0,0,1,124.05,329.94Z"/><path class="cls-3" d="M148.15,328.79a5.79,5.79,0,0,1,.43-1l1.25-2.55c1.06-2.14,2.51-5.12,4-8.45s2.8-6.37,3.72-8.58c.44-1.07.81-1.95,1.09-2.62a5,5,0,0,1,.44-.95,6.58,6.58,0,0,1-.31,1c-.23.63-.56,1.54-1,2.66-.86,2.24-2.12,5.3-3.63,8.64s-3,6.29-4.11,8.42c-.56,1.06-1,1.91-1.35,2.49A5.43,5.43,0,0,1,148.15,328.79Z"/><path class="cls-3" d="M241.15,181.21c-11.91-13.34-10.76-32.61-6.26-49.11.75-2.75,1.14-5.75,3-7.88s5.37-3,7.58-1.29c1.83,1.46,2.16,4.07,2.85,6.32a16.59,16.59,0,0,0,5,7.76c1.55,1.34,3.61,2.42,5.58,1.87,2.71-.76,3.77-4,4.41-6.76q1.78-7.74,3.56-15.46a26.55,26.55,0,0,1,2.78-8c1.48-2.41,3.95-4.4,6.75-4.51s5.69,2.17,5.61,5a26,26,0,0,1-.74,3.46,3,3,0,0,0,1.05,3.14c1,.58,2.32.06,3.33-.55,3.51-2.12,6.3-5.25,8.95-8.39s5.28-6.39,8.58-8.81,7.46-4,11.46-3.28,7.64,4.15,7.72,8.27-3.12,7.54-6.34,10.1a63.23,63.23,0,0,1-15.73,9.2,5.13,5.13,0,0,0-2.69,1.8c-1,1.69.27,3.94,1.95,5,1.89,1.17,4.18,1.49,6.27,2.25s4.2,2.27,4.53,4.5c.46,3.09-2.6,5.49-5.38,6.87A54.11,54.11,0,0,1,287.28,148c-2.21.26-4.5.41-6.47,1.45s-3.56,3.28-3,5.46,2.92,3.41,5.14,3.52,4.4-.6,6.61-.88c4.14-.53,9,.89,10.63,4.74a9,9,0,0,1-.9,7.95,20.68,20.68,0,0,1-5.81,5.83A54.4,54.4,0,0,1,267,186.62c-9.52,1-17.87-.14-25.86-5.41"/><path class="cls-3" d="M243.56,182.82c2.16-6.45-.1-3.21,4.35-11A256.22,256.22,0,0,1,264,147.49c1.54-2.07,3.06-4.13,4.55-6.15s3-4,4.57-5.88a123.55,123.55,0,0,1,9.67-10.21c3.23-3.1,6.41-5.92,9.4-8.54s5.84-5,8.52-7a101.56,101.56,0,0,1,13.37-8.77c1.66-.9,3-1.57,3.85-2l1-.49a1.82,1.82,0,0,1,.35-.15,2.22,2.22,0,0,1-.33.19L318,99c-.88.47-2.16,1.16-3.8,2.09A105.88,105.88,0,0,0,301,110c-2.66,2.07-5.49,4.46-8.47,7.08s-6.14,5.46-9.36,8.56a129.46,129.46,0,0,0-9.6,10.19c-1.57,1.86-3,3.84-4.54,5.86l-4.55,6.16a260.36,260.36,0,0,0-16.14,24.24c-4.45,7.76-2.21,4.48-4.41,10.89"/><path class="cls-3" d="M273.31,135.47a5.36,5.36,0,0,1,0-1.24c0-.8.12-1.95.25-3.37.26-2.84.76-6.75,1.32-11.07s1-8.22,1.22-11.05c.11-1.42.19-2.57.23-3.37a6.25,6.25,0,0,1,.13-1.23,5.29,5.29,0,0,1,.07,1.24c0,.8,0,2-.07,3.38-.12,2.85-.5,6.78-1.06,11.1s-1.08,8.1-1.47,11c-.17,1.33-.31,2.45-.42,3.35A6.07,6.07,0,0,1,273.31,135.47Z"/><path class="cls-3" d="M310.38,137.24a7.08,7.08,0,0,1-1.46-.16c-.93-.14-2.27-.34-3.94-.53-3.34-.42-8-.84-13.09-1.08s-9.77-.24-13.13-.15c-1.69,0-3.05.1-4,.14a7.43,7.43,0,0,1-1.46,0,7.5,7.5,0,0,1,1.45-.22c.94-.1,2.3-.22,4-.3,3.37-.19,8-.24,13.18,0A127.45,127.45,0,0,1,305,136.18c1.67.24,3,.5,3.93.7A9,9,0,0,1,310.38,137.24Z"/><path class="cls-3" d="M248.5,171.25a1.82,1.82,0,0,1-.14-.49l-.3-1.42c-.26-1.25-.59-3.05-1-5.29-.75-4.47-1.59-10.68-2.42-17.55s-1.62-13.07-2.28-17.55c-.32-2.18-.59-4-.79-5.31-.08-.58-.15-1-.21-1.45a1.65,1.65,0,0,1,0-.51,3.24,3.24,0,0,1,.14.49l.3,1.43c.26,1.24.58,3.05,1,5.29.75,4.47,1.59,10.68,2.42,17.55s1.62,13.07,2.27,17.55c.33,2.18.6,4,.8,5.31.08.58.15,1,.2,1.44A2,2,0,0,1,248.5,171.25Z"/><path class="cls-3" d="M299.27,167.22a1.74,1.74,0,0,1-.51.09l-1.48.13-5.44.44c-4.59.38-10.93,1-17.93,1.62s-13.35,1.19-18,1.47c-2.31.14-4.17.23-5.46.27l-1.48,0a1.76,1.76,0,0,1-.52,0,3.18,3.18,0,0,1,.51-.08l1.48-.13,5.44-.44c4.59-.38,10.93-1,17.94-1.62s13.35-1.19,17.95-1.47c2.3-.14,4.16-.23,5.45-.27l1.48,0A3,3,0,0,1,299.27,167.22Z"/><path class="cls-3" d="M338.66,269a3.36,3.36,0,0,1-.17.46l-.55,1.34c-.51,1.19-1.22,2.89-2.13,5l-7.71,17.83,0,.11-.12,0-24.22,4-8.12,1.33-.37.06.09-.37c2-7.79,3.79-15,5.34-21.05l.11.23-14.23-6.36-3.93-1.79-1-.48a2.41,2.41,0,0,1-.34-.18,1.65,1.65,0,0,1,.36.12l1.05.43,4,1.69,14.3,6.2.16.07,0,.17-5.25,21.07-.28-.3,8.12-1.33,24.23-3.94-.17.12,7.87-17.75,2.25-5c.25-.55.45-1,.61-1.31A2.22,2.22,0,0,1,338.66,269Z"/><polygon class="cls-3" points="298.44 296.25 297.78 297.99 298.84 299.52 296.98 299.43 295.85 300.91 295.36 299.11 293.6 298.5 295.16 297.48 295.2 295.61 296.65 296.78 298.44 296.25"/><polygon class="cls-3" points="281.81 267.99 281.48 268.86 282.01 269.62 281.08 269.58 280.52 270.31 280.27 269.42 279.4 269.11 280.18 268.6 280.2 267.68 280.92 268.26 281.81 267.99"/><polygon class="cls-3" points="328.78 292.56 328.45 293.43 328.98 294.19 328.05 294.14 327.49 294.88 327.25 293.99 326.37 293.68 327.15 293.17 327.17 292.24 327.89 292.82 328.78 292.56"/><polygon class="cls-3" points="301.68 276.96 301.35 277.83 301.87 278.59 300.95 278.55 300.38 279.28 300.14 278.39 299.27 278.08 300.04 277.57 300.06 276.65 300.79 277.23 301.68 276.96"/><polygon class="cls-3" points="339.78 268.13 339.45 269 339.98 269.76 339.06 269.71 338.49 270.45 338.25 269.56 337.38 269.25 338.15 268.74 338.17 267.81 338.89 268.39 339.78 268.13"/><path class="cls-3" d="M36.69,340.9H89s-4.63-8.42-18.11-7.2c-12.87,1.17-13.52-4.14-20.06-4.8S38.87,333.27,36.69,340.9Z"/><path class="cls-3" d="M47.08,134.79H99.43s-4.63-8.43-18.1-7.2c-12.87,1.17-13.53-4.15-20.07-4.8S49.26,127.15,47.08,134.79Z"/><path class="cls-3" d="M313,171.19h43s-3.8-6.92-14.87-5.91c-10.58,1-11.11-3.41-16.49-3.95S314.75,164.92,313,171.19Z"/></g></g><g id="Pencil"><g class="cls-2"><path class="cls-3" d="M227.08,256.09c2.13-16.12-9.2-29.42-23.36-37.41S173.13,208,157.49,203.57c-14.75-4.19-29.42-10.3-40.34-21.06s-17.48-26.94-13.55-41.76c1-3.72,2.75-7.46,5.94-9.61s8.08-2.09,10.46.93c5.08,6.44-4.82,18,1.38,23.35,1.42,1.23,3.38,1.68,4.85,2.86,3.92,3.12,2.65,9.19,3.2,14.17,1.1,9.85,10.33,16.69,19.4,20.68,12.15,5.35,25.31,7.86,38.2,11s25.88,7.15,36.62,15,20,20,20,33.28c0,3.71-.49,8.27-2.82,11.16s-5.29,3.48-8.64,1.9-5.71-4-5.08-9.37"/><g class="cls-4"><path class="cls-3" d="M227.08,256.09c2.13-16.12-9.2-29.42-23.36-37.41S173.13,208,157.49,203.57c-14.75-4.19-29.42-10.3-40.34-21.06s-17.48-26.94-13.55-41.76c1-3.72,2.75-7.46,5.94-9.61s8.08-2.09,10.46.93c5.08,6.44-4.82,18,1.38,23.35,1.42,1.23,3.38,1.68,4.85,2.86,3.92,3.12,2.65,9.19,3.2,14.17,1.1,9.85,10.33,16.69,19.4,20.68,12.15,5.35,25.31,7.86,38.2,11s25.88,7.15,36.62,15,20,20,20,33.28c0,3.71-.49,8.27-2.82,11.16s-5.29,3.48-8.64,1.9-5.71-4-5.08-9.37"/></g><path class="cls-3" d="M158.57,128c-.51-6,3.94-11.17,9-14s10.85-3.92,16.06-6.39c13-6.14,21.18-20.58,21.79-35.4s-5.81-29.63-15.86-40.51c-4.08-4.42-9.11-9-9.17-15.09-.06-6.29,6-11.25,12.14-11.17s11.72,4.16,15.37,9.29S213.57,26,215.54,32c-1.4-2.51,1.48-5.62,4.25-5.36s5,2.58,6.67,4.89a52,52,0,0,1,10,34.84,49.05,49.05,0,0,1-15.5,31.94c-9.87,9-22.92,13.22-35.57,17.21l-26.42,8.33"/><g class="cls-4"><path class="cls-3" d="M158.57,128c-.51-6,3.94-11.17,9-14s10.85-3.92,16.06-6.39c13-6.14,21.18-20.58,21.79-35.4s-5.81-29.63-15.86-40.51c-4.08-4.42-9.11-9-9.17-15.09-.06-6.29,6-11.25,12.14-11.17s11.72,4.16,15.37,9.29S213.57,26,215.54,32c-1.4-2.51,1.48-5.62,4.25-5.36s5,2.58,6.67,4.89a52,52,0,0,1,10,34.84,49.05,49.05,0,0,1-15.5,31.94c-9.87,9-22.92,13.22-35.57,17.21l-26.42,8.33"/></g><path class="cls-3" d="M151.22,2.52a5.79,5.79,0,0,0-3.07,7.09,5.8,5.8,0,0,0,7,3.38,5.79,5.79,0,0,0,3.67-6.8,5.78,5.78,0,0,0-6.63-4"/><g class="cls-4"><path class="cls-3" d="M151.22,2.52a5.79,5.79,0,0,0-3.07,7.09,5.8,5.8,0,0,0,7,3.38,5.79,5.79,0,0,0,3.67-6.8,5.78,5.78,0,0,0-6.63-4"/></g></g><g class="cls-5"><path class="cls-3" d="M183.8,387.83c-3.24-6.71-.42-15.08,4.74-20.46s12.2-8.45,19-11.45c15.06-6.63,31-14.53,38.65-29.1,2.58-4.91,4-10.31,5.51-15.66,2.81-10.37,5.44-22.14-.21-31.27-1.62-2.62-4.07-5-7.11-5.5-3.46-.62-7,1.29-9.16,4.09a20.16,20.16,0,0,0-3.49,9.82c-.84,6.64-.14,13.39-.84,20s-3.13,13.61-8.62,17.44c-6.66,4.64-16.17,3.6-22.65,8.51-5.22,4-7.21,10.84-11.3,16-3.44,4.31-8.24,7.26-12.65,10.57S167,368.2,165.53,373.5a15,15,0,0,0,20.89,17.63"/><g class="cls-4"><path class="cls-3" d="M183.8,387.83c-3.24-6.71-.42-15.08,4.74-20.46s12.2-8.45,19-11.45c15.06-6.63,31-14.53,38.65-29.1,2.58-4.91,4-10.31,5.51-15.66,2.81-10.37,5.44-22.14-.21-31.27-1.62-2.62-4.07-5-7.11-5.5-3.46-.62-7,1.29-9.16,4.09a20.16,20.16,0,0,0-3.49,9.82c-.84,6.64-.14,13.39-.84,20s-3.13,13.61-8.62,17.44c-6.66,4.64-16.17,3.6-22.65,8.51-5.22,4-7.21,10.84-11.3,16-3.44,4.31-8.24,7.26-12.65,10.57S167,368.2,165.53,373.5a15,15,0,0,0,20.89,17.63"/></g></g><g class="cls-2"><path class="cls-3" d="M83.67,48.85a21.2,21.2,0,0,1-8.42-17.11,21.18,21.18,0,0,1,9-16.79C87.35,12.83,91,11.54,93.73,9c2.43-2.26,4-5.4,6.73-7.3A10.08,10.08,0,0,1,112,2,10.05,10.05,0,0,1,115.3,13c-1.25,3.51-4.4,6.08-5.72,9.57-1.41,3.75-.5,8-1,11.93A16.47,16.47,0,0,1,86.48,47.81"/><g class="cls-4"><path class="cls-3" d="M83.67,48.85a21.2,21.2,0,0,1-8.42-17.11,21.18,21.18,0,0,1,9-16.79C87.35,12.83,91,11.54,93.73,9c2.43-2.26,4-5.4,6.73-7.3A10.08,10.08,0,0,1,112,2,10.05,10.05,0,0,1,115.3,13c-1.25,3.51-4.4,6.08-5.72,9.57-1.41,3.75-.5,8-1,11.93A16.47,16.47,0,0,1,86.48,47.81"/></g></g><path class="cls-3" d="M84.05,27.41H96.34a0,0,0,0,1,0,0V52.74a5.41,5.41,0,0,1-5.41,5.41H89.47a5.41,5.41,0,0,1-5.41-5.41V27.41a0,0,0,0,1,0,0Z"/><polygon class="cls-3" points="84.05 27.41 90.2 16.14 96.34 27.41 84.05 27.41"/><path class="cls-6" d="M87.76,20.6s1.87,2.81,4.87,0L90.2,16.14Z"/><line class="cls-7" x1="85.87" y1="27.41" x2="88.51" y2="27.41"/><path class="cls-6" d="M96.51,51.51a38.85,38.85,0,0,1-6.24.25A39,39,0,0,1,84,51.51a39,39,0,0,1,6.25-.25A38.85,38.85,0,0,1,96.51,51.51Z"/><path class="cls-6" d="M96.39,49.63a38.8,38.8,0,0,1-6.12.25,38.88,38.88,0,0,1-6.13-.25,37.49,37.49,0,0,1,6.13-.25A37.41,37.41,0,0,1,96.39,49.63Z"/><path class="cls-6" d="M87.66,27.59c.14,0,.25,4.91.25,11s-.11,11-.25,11-.25-4.9-.25-11S87.52,27.59,87.66,27.59Z"/><path class="cls-6" d="M92.63,27.59c.14,0,.25,4.91.25,11s-.11,11-.25,11-.25-4.9-.25-11S92.49,27.59,92.63,27.59Z"/></g><g id="Notebook"><polygon class="cls-8" points="190.83 373.71 246.66 376.1 248.01 379.35 211.42 438.75 145.35 436.82 190.83 373.71"/><polygon class="cls-9" points="142.85 431.03 209.31 434.83 244.02 380.96 219.65 382.94 157.95 404.67 142.85 431.03"/><path class="cls-10" d="M133.51,427l61,1c-2.53-7.8,3.45-18.8,11.65-22.5,5.44-2.45,15.67-5.63,20.95-8.34,10-5.14,19.1-14.89,18.31-23.25l-25.07-.8-32-1.24c-2.67,7.94-8.4,13.14-17.09,16.27-7.79,2.79-16.65,2.79-24.24,6-12.22,5.12-18.1,21.7-13.55,32.93"/><path class="cls-8" d="M133.51,427l-.15-.39-.42-1.18a15.31,15.31,0,0,1-.52-2,20.07,20.07,0,0,1-.42-2.78,28.12,28.12,0,0,1,.49-7.75,29,29,0,0,1,3.91-9.69,23.55,23.55,0,0,1,1.76-2.45c.33-.4.64-.82,1-1.21l1.12-1.14a11.65,11.65,0,0,1,1.22-1.1c.44-.34.85-.72,1.31-1.05a23,23,0,0,1,3-1.77c4.23-2.13,9.28-3,14.54-4,2.64-.48,5.36-1,8.08-1.73a37.79,37.79,0,0,0,8-3.24,26.38,26.38,0,0,0,3.76-2.46,22,22,0,0,0,3.33-3.15,23.91,23.91,0,0,0,4.63-8.18l.06-.16h.17l26.66,1c9.24.36,18.81.61,28.61.94l1.79.06h.22l0,.21a13.84,13.84,0,0,1-.81,5.65,22.88,22.88,0,0,1-1.12,2.6,27.9,27.9,0,0,1-1.46,2.4,37.31,37.31,0,0,1-7.56,8,45.1,45.1,0,0,1-9.12,5.64c-3.22,1.44-6.48,2.62-9.68,3.8s-6.34,2.3-9.34,3.61a18.25,18.25,0,0,0-4.11,2.49c-.64.46-1.19,1.05-1.78,1.57s-1.1,1.12-1.57,1.75a22.56,22.56,0,0,0-4.26,8,14.81,14.81,0,0,0-.15,8.54l.08.27h-.28l-44.38-.79-12.31-.25-3.23-.08c-.73,0-1.11,0-1.11,0s.38,0,1.11,0l3.23,0,12.31.14,44.39.61-.2.27a15.23,15.23,0,0,1,.13-8.79,23.17,23.17,0,0,1,4.33-8.18c.47-.64,1.06-1.19,1.6-1.79a23,23,0,0,1,1.81-1.6,19.11,19.11,0,0,1,4.2-2.56c3-1.32,6.18-2.44,9.37-3.63s6.45-2.37,9.64-3.8a44.51,44.51,0,0,0,9-5.58,36.33,36.33,0,0,0,7.46-7.89,26.76,26.76,0,0,0,1.43-2.35,20.23,20.23,0,0,0,1.09-2.54,13.18,13.18,0,0,0,.78-5.43l.24.23-1.79-.06c-9.8-.33-19.37-.58-28.61-1l-26.66-1,.23-.15a24.44,24.44,0,0,1-4.74,8.33,22.73,22.73,0,0,1-3.4,3.19,26.12,26.12,0,0,1-3.82,2.5,38,38,0,0,1-8.14,3.25c-2.75.75-5.48,1.25-8.12,1.72-5.26.94-10.29,1.82-14.46,3.91a21.29,21.29,0,0,0-2.93,1.73c-.45.33-.87.69-1.29,1a9.61,9.61,0,0,0-1.21,1.08l-1.12,1.12c-.36.38-.67.8-1,1.19a22.71,22.71,0,0,0-1.75,2.42A28.85,28.85,0,0,0,132.7,413a28.07,28.07,0,0,0-.55,7.7,22.39,22.39,0,0,0,.38,2.77,14.64,14.64,0,0,0,.49,2c.16.51.29.9.38,1.18S133.51,427,133.51,427Z"/><path class="cls-8" d="M205.54,372.86s.08-.39.13-1.09a6.06,6.06,0,0,0-.48-2.88,5.9,5.9,0,0,0-2.88-3.09,6.59,6.59,0,0,0-8.86,3.39,7.48,7.48,0,0,0-.59,4.25,7.23,7.23,0,0,0,1,2.75c.38.59.66.87.63.9a2.7,2.7,0,0,1-.79-.79,6.68,6.68,0,0,1-1.23-2.8A7.51,7.51,0,0,1,193,369a7.07,7.07,0,0,1,4-3.85,7,7,0,0,1,5.52.24,6.17,6.17,0,0,1,3,3.37,6,6,0,0,1,.35,3,4.16,4.16,0,0,1-.21.81C205.59,372.78,205.55,372.87,205.54,372.86Z"/><path class="cls-8" d="M215.1,372.86s.08-.39.14-1.09a6.19,6.19,0,0,0-.48-2.88,5.92,5.92,0,0,0-2.89-3.09,6.58,6.58,0,0,0-8.85,3.39,7.31,7.31,0,0,0-.59,4.25,7.41,7.41,0,0,0,1,2.75c.38.59.66.87.63.9a2.7,2.7,0,0,1-.79-.79,6.94,6.94,0,0,1-1.23-2.8,7.6,7.6,0,0,1,.52-4.5,7.07,7.07,0,0,1,4-3.85,7,7,0,0,1,5.51.24,6.19,6.19,0,0,1,3,3.37,5.85,5.85,0,0,1,.34,3,4.29,4.29,0,0,1-.2.81C215.16,372.78,215.12,372.87,215.1,372.86Z"/><path class="cls-8" d="M222.37,373.36c-.05,0,0-.4.07-1.1a6.13,6.13,0,0,0-.64-2.85,5.92,5.92,0,0,0-3.06-2.92,6.61,6.61,0,0,0-5.14.11,6.74,6.74,0,0,0-3.51,3.78,7.39,7.39,0,0,0-.34,4.27,7.31,7.31,0,0,0,1.19,2.69c.41.57.71.83.68.86a2.67,2.67,0,0,1-.83-.74,6.75,6.75,0,0,1-1.38-2.73,7.51,7.51,0,0,1,.26-4.52,7,7,0,0,1,9.25-4.14,6.2,6.2,0,0,1,3.2,3.19,5.85,5.85,0,0,1,.51,3,4.35,4.35,0,0,1-.15.82A1,1,0,0,1,222.37,373.36Z"/><path class="cls-8" d="M230.15,373.8s0-.4,0-1.1a6.15,6.15,0,0,0-.79-2.81,5.94,5.94,0,0,0-3.21-2.76,6.6,6.6,0,0,0-8.43,4.34,7.44,7.44,0,0,0-.12,4.29,7.26,7.26,0,0,0,1.34,2.62c.44.55.75.8.72.83a2.84,2.84,0,0,1-.87-.7,7,7,0,0,1-1.53-2.65,7.59,7.59,0,0,1,0-4.53,7.14,7.14,0,0,1,3.52-4.26,7,7,0,0,1,5.51-.37,6.14,6.14,0,0,1,3.36,3,5.88,5.88,0,0,1,.67,3,4.28,4.28,0,0,1-.11.83C230.2,373.71,230.17,373.81,230.15,373.8Z"/><path class="cls-8" d="M238,373.62c-.05,0,0-.4,0-1.1a6.16,6.16,0,0,0-.87-2.79,5.93,5.93,0,0,0-3.28-2.67,6.69,6.69,0,0,0-5.12.53,6.78,6.78,0,0,0-3.19,4.05,7.34,7.34,0,0,0,0,4.29,7.08,7.08,0,0,0,1.41,2.58c.45.53.77.77.74.81a2.89,2.89,0,0,1-.89-.68,6.84,6.84,0,0,1-1.6-2.6,7.57,7.57,0,0,1-.11-4.53,7.09,7.09,0,0,1,3.4-4.36,7,7,0,0,1,5.49-.52,6.16,6.16,0,0,1,3.45,2.93,6,6,0,0,1,.76,3,4.48,4.48,0,0,1-.09.82A1.09,1.09,0,0,1,238,373.62Z"/><path class="cls-8" d="M244.53,374.5s0-.4,0-1.1a6.21,6.21,0,0,0-.75-2.83,6,6,0,0,0-3.18-2.79,6.64,6.64,0,0,0-5.13.32,6.74,6.74,0,0,0-3.35,3.92,7.33,7.33,0,0,0,1.13,6.92c.44.55.75.81.72.84a2.59,2.59,0,0,1-.86-.71,6.84,6.84,0,0,1-1.5-2.67,7.51,7.51,0,0,1,.07-4.52,7.15,7.15,0,0,1,3.57-4.23,7,7,0,0,1,5.51-.3,6.19,6.19,0,0,1,3.33,3.06,6,6,0,0,1,.64,3,3.89,3.89,0,0,1-.13.82C244.58,374.41,244.55,374.5,244.53,374.5Z"/></g><g id="Air_Balloon" data-name="Air Balloon"><path class="cls-3" d="M273.29,169.65A54.4,54.4,0,0,0,265,170a34.4,34.4,0,0,0-30,34.3,61,61,0,0,0,2.14,16.35c4.8,17.05,6.29,32.09,5.73,39.41l16.1,8.65s7.45-10.7,14.65-15.32,31.16-17,40.65-29.66c6.12-8.18,7.29-25-7.29-39.66A49.42,49.42,0,0,0,273.29,169.65Z"/><polygon class="cls-3" points="235.24 278.7 249.78 286.56 240.32 298.59 230.63 294.18 235.24 278.7"/><path class="cls-11" d="M236,279.19c-.13-.05,1.31-4.36,3.22-9.64s3.56-9.52,3.69-9.47-1.31,4.36-3.22,9.64S236.08,279.24,236,279.19Z"/><path class="cls-11" d="M248.87,286c-.12-.07,2.16-4.14,5.09-9.1s5.4-8.93,5.51-8.86-2.16,4.15-5.09,9.11S249,286,248.87,286Z"/><g class="cls-12"><path class="cls-13" d="M278.14,170.1c-.65,0-8.65,9.4-12.19,15.74-11.91,21.33-12.44,42.09-15.75,66.29-.47,3.45-2.19,10.91-2.16,10.73,1.77,1.39,7.69,4.13,7.69,4.13s5.58-6.74,7.8-10.13c8.89-13.57,18.53-24.15,26.14-38.48s14.93-27,7.89-41.66C297.56,176.72,285.37,169.7,278.14,170.1Z"/></g><path class="cls-6" d="M314.32,225.9a4.26,4.26,0,0,1-.21-.46c-.13-.31-.28-.78-.55-1.36a25.22,25.22,0,0,0-2.81-4.72,24.68,24.68,0,0,0-6.18-5.77,23.65,23.65,0,0,0-10.13-3.75h-.1l-.06-.08a56.42,56.42,0,0,0-6.49-7.45,32.24,32.24,0,0,0-8.87-6.11,23,23,0,0,0-10.48-2,17.4,17.4,0,0,0-9.18,3.06l-.14.1-.14-.12a18.13,18.13,0,0,0-9.79-4.35,17.78,17.78,0,0,0-8.33,1.06,18.59,18.59,0,0,0-4.79,2.7c-.5.39-.88.71-1.12.93a2.33,2.33,0,0,1-.39.33,2.6,2.6,0,0,1,.34-.38,13.86,13.86,0,0,1,1.08-1,17.88,17.88,0,0,1,13.25-4,18.41,18.41,0,0,1,10,4.39H259a17.66,17.66,0,0,1,9.41-3.18,23.2,23.2,0,0,1,10.71,2,32.61,32.61,0,0,1,9,6.21,55,55,0,0,1,6.52,7.54l-.15-.09a23.68,23.68,0,0,1,10.29,3.89A24.28,24.28,0,0,1,311,219.2a23.06,23.06,0,0,1,2.73,4.83c.25.59.38,1.07.49,1.38A2.19,2.19,0,0,1,314.32,225.9Z"/><path class="cls-6" d="M284.4,247.15a10.3,10.3,0,0,0-1.39-3.5,9.6,9.6,0,0,0-3.09-3,8.63,8.63,0,0,0-5.33-1.26l-.2,0,0-.2a14.07,14.07,0,0,0-2.64-6.22,13.79,13.79,0,0,0-6-4.63,14.26,14.26,0,0,0-11.81.61l-.15.08-.12-.13a10.09,10.09,0,0,0-5.59-3,11.15,11.15,0,0,0-5,.15,11.86,11.86,0,0,0-4,2s.07-.08.21-.22a8.31,8.31,0,0,1,.69-.56,9.66,9.66,0,0,1,3-1.45,11.16,11.16,0,0,1,5.15-.27,10.41,10.41,0,0,1,5.85,3.09l-.27,0a14.59,14.59,0,0,1,12.2-.68,14.18,14.18,0,0,1,6.17,4.81,14.36,14.36,0,0,1,2.68,6.44l-.23-.18a8.88,8.88,0,0,1,5.55,1.39,9.55,9.55,0,0,1,3.12,3.13,8.57,8.57,0,0,1,1.07,2.63,6.16,6.16,0,0,1,.1.74A.74.74,0,0,1,284.4,247.15Z"/><path class="cls-6" d="M247,290.35s-.15-.2-.53-.35a2.55,2.55,0,0,0-1.7.05,4.72,4.72,0,0,1-1.29.23,2,2,0,0,1-1.43-.63c-.78-.8-1.07-2-1.8-2.77a1.66,1.66,0,0,0-1.34-.56,8.07,8.07,0,0,0-1.51.3,3.32,3.32,0,0,1-1.53.08,2.64,2.64,0,0,1-1.19-.61,2.83,2.83,0,0,1-1-1.61,1.21,1.21,0,0,1,0-.69s0,.24.17.64a2.94,2.94,0,0,0,1,1.39,2.47,2.47,0,0,0,1,.48,3.17,3.17,0,0,0,1.34-.12,8.62,8.62,0,0,1,1.6-.35,2.16,2.16,0,0,1,1.72.71c.85,1,1.11,2.11,1.77,2.79a1.58,1.58,0,0,0,1.12.54,4.68,4.68,0,0,0,1.19-.16,2.58,2.58,0,0,1,1.87.11C246.93,290.07,247,290.35,247,290.35Z"/><path class="cls-6" d="M248.64,288a63.6,63.6,0,0,1-7.09-3.51,61,61,0,0,1-6.86-3.94,63.6,63.6,0,0,1,7.09,3.51A62.13,62.13,0,0,1,248.64,288Z"/><path class="cls-6" d="M245.75,291.68s-.2.1-.55.27c-.18.08-.38.2-.66.31a2.25,2.25,0,0,1-1,.13,4.21,4.21,0,0,1-2.4-.92,3.41,3.41,0,0,1-.91-1.26,4.67,4.67,0,0,0-.7-1.31,3.35,3.35,0,0,0-2.64-.75,6.05,6.05,0,0,1-2.53-.25,2.3,2.3,0,0,1-1.27-1.17c-.17-.39-.11-.63-.09-.63s.06.22.26.54a2.33,2.33,0,0,0,1.23.94,6.49,6.49,0,0,0,2.39.11,3.68,3.68,0,0,1,3,.88,4.8,4.8,0,0,1,.79,1.44,2.78,2.78,0,0,0,.76,1.11,4.06,4.06,0,0,0,2.13.92,3.06,3.06,0,0,0,1.56-.27A1.24,1.24,0,0,1,245.75,291.68Z"/></g><g id="Character"><path class="cls-6" d="M136,198.29l25.15-3.73-12-17-6.45.38a11.5,11.5,0,0,0-9.89,6.93h0a11.58,11.58,0,0,0-.73,6.73Z"/><path class="cls-14" d="M136,198.29l25.15-3.73-12-17-6.45.38a11.5,11.5,0,0,0-9.89,6.93h0a11.58,11.58,0,0,0-.73,6.73Z"/><path class="cls-15" d="M187.86,394.81l8.49-25,.39.88a3.48,3.48,0,0,1,.17,2.4c-.62,2.12-2.45,8-7.38,20.32a2.26,2.26,0,0,1-1.67,1.4Z"/></g><g id="Light_Bulb" data-name="Light Bulb"><path class="cls-3" d="M177,57.09a24.38,24.38,0,1,0-33.27,24.25c.19,2.89.4,6.14.4,6.14l21.32-1.38s-.09-3.45-.24-6.53A24.36,24.36,0,0,0,177,57.09Z"/><path class="cls-16" d="M157.72,86.5s0-.1,0-.3,0-.51,0-.89c0-.77.11-1.92.23-3.39s.29-3.28.63-5.35a35.34,35.34,0,0,1,1.77-6.91,22,22,0,0,1,1.76-3.77,4.56,4.56,0,0,1,1.57-1.61,2.51,2.51,0,0,1,2.31-.07,1.66,1.66,0,0,1,.81,2.17,3.42,3.42,0,0,1-1.77,1.74,6.67,6.67,0,0,1-5.08,0,6.76,6.76,0,0,1-3.7-3.84,5.11,5.11,0,0,1-.32-2.8,2.19,2.19,0,0,1,2.1-1.83,1.59,1.59,0,0,1,1.29.78,2.16,2.16,0,0,1,.29,1.49,4.69,4.69,0,0,1-1.55,2.52,7.27,7.27,0,0,1-5.56,2,6.36,6.36,0,0,1-4.93-3.21,3.67,3.67,0,0,1-.36-2.93,1.9,1.9,0,0,1,1-1.15,1.82,1.82,0,0,1,1.5,0,2.48,2.48,0,0,1,1.1,1,3.88,3.88,0,0,1,.46,1.38,7,7,0,0,1-.19,2.81,7.27,7.27,0,0,1-3.16,4.3,7.34,7.34,0,0,1-5,1,3.79,3.79,0,0,1-2.27-1,1.87,1.87,0,0,1-.28-2.33,1.57,1.57,0,0,1,1-.61,2.36,2.36,0,0,1,1.18.16,3.58,3.58,0,0,1,1.6,1.57c.69,1.28,1.27,2.53,1.84,3.72,2.27,4.78,3.91,8.73,5,11.47.55,1.37,1,2.44,1.24,3.17.13.35.24.63.31.83s.1.28.1.28,0-.09-.13-.27l-.33-.82L151,82.68c-1.13-2.72-2.8-6.66-5.09-11.42-.58-1.18-1.17-2.44-1.85-3.69a3.31,3.31,0,0,0-1.49-1.47,1.46,1.46,0,0,0-1.67,2.39,3.59,3.59,0,0,0,2.12.93,7.08,7.08,0,0,0,4.8-1A7,7,0,0,0,151,61.6a2.66,2.66,0,0,0-1.4-2.15,1.54,1.54,0,0,0-1.26,0,1.59,1.59,0,0,0-.84,1,3.38,3.38,0,0,0,.34,2.7,6,6,0,0,0,4.69,3,7,7,0,0,0,5.34-1.93,4.49,4.49,0,0,0,1.46-2.36,1.94,1.94,0,0,0-.25-1.29,1.29,1.29,0,0,0-1.05-.64,1.79,1.79,0,0,0-1.19.47,2.1,2.1,0,0,0-.62,1.14,4.76,4.76,0,0,0,.31,2.63,6.42,6.42,0,0,0,3.54,3.68,6.35,6.35,0,0,0,4.86,0,3.2,3.2,0,0,0,1.65-1.59,1.45,1.45,0,0,0-.69-1.86,2.27,2.27,0,0,0-2.09.07A4.2,4.2,0,0,0,162.36,66a22.84,22.84,0,0,0-1.77,3.72,37.12,37.12,0,0,0-1.8,6.87c-.35,2.06-.53,3.86-.67,5.33s-.22,2.6-.29,3.39l-.07.88C157.74,86.4,157.72,86.5,157.72,86.5Z"/><path class="cls-3" d="M164.06,90.16l-18.31,1.18a1.37,1.37,0,0,1-1.46-1.29h0a1.37,1.37,0,0,1,1.28-1.46l18.31-1.18a1.38,1.38,0,0,1,1.46,1.28h0A1.38,1.38,0,0,1,164.06,90.16Z"/><path class="cls-3" d="M164.13,91.36l-18.3,1.18a1.38,1.38,0,1,0,.17,2.75l2-.13,3,4.9a1.74,1.74,0,0,0,1.62.84l6.54-.42a1.76,1.76,0,0,0,1.51-1.06l2.26-5.23,1.37-.09a1.37,1.37,0,1,0-.18-2.74Z"/><g class="cls-17"><path class="cls-6" d="M136,44.17a17.75,17.75,0,0,1,4.66-3.55,12.81,12.81,0,0,1,3.68-1.33c.91-.16,1.44-.1,1.5.09.13.43-1.67,1.21-4,3a21.16,21.16,0,0,0-6.9,9,21.22,21.22,0,0,0-1,11.27c.53,3,1.34,4.74,1,5-.17.1-.6-.22-1.17-1a13,13,0,0,1-1.82-3.46,18,18,0,0,1-1.05-5.77,19,19,0,0,1,1.25-7.14"/></g><g class="cls-17"><path class="cls-6" d="M151.8,40.05c-1.55.08-2.93-.25-3.14-1.06-.1-.4.16-.85.69-1.22a4.9,4.9,0,0,1,4.6-.27c.58.3.89.72.84,1.13"/></g><path class="cls-6" d="M160.37,99.87a11.86,11.86,0,0,1-1.28-.3,10.39,10.39,0,0,0-3.14-.19,10.24,10.24,0,0,0-3,.77c-.74.31-1.17.58-1.2.54a3.61,3.61,0,0,1,1.11-.74,9,9,0,0,1,3.11-.87,8.89,8.89,0,0,1,3.21.28A4.17,4.17,0,0,1,160.37,99.87Z"/><path class="cls-6" d="M163,94.25c0,.09-3.3.37-7.38.63s-7.4.41-7.41.33,3.3-.37,7.39-.63S163,94.17,163,94.25Z"/><path class="cls-6" d="M162,96.5a10,10,0,0,1-1.79.3c-1.11.14-2.65.3-4.35.44s-3.26.21-4.38.25a10.43,10.43,0,0,1-1.81,0,11.86,11.86,0,0,1,1.8-.2l4.36-.33,4.36-.35A11.57,11.57,0,0,1,162,96.5Z"/></g><g id="Book"><path class="cls-3" d="M30.14,219l4,6.37s17-15.61,33.78-11.2C67.9,214.14,52.78,201.32,30.14,219Z"/><path class="cls-3" d="M67.9,214.14s12.45-13.52,30.71-10.43l5,.75L102,201.58S70.25,190.71,67.9,214.14Z"/><path class="cls-18" d="M41.63,168.56s-24.94-4.29-41.3,4.56L26.3,222s21.26-20.49,41.6-7.87Z"/><path class="cls-3" d="M26.27,222.22l-.08-.15-26-49L.27,173c16.21-8.77,41.13-4.62,41.38-4.58h.05l0,.05,26.53,46-.42-.26c-10.46-6.49-21.17-4-28.31-.79a51.56,51.56,0,0,0-13.14,8.64ZM.5,173.17l25.84,48.64a52.56,52.56,0,0,1,13.08-8.58c7.11-3.2,17.71-5.68,28.13.55l-26-45.11C40.2,168.45,16.26,164.72.5,173.17Z"/><path class="cls-11" d="M41.63,168.56l.13.2.37.61,1.44,2.43,5.4,9.26,19.12,33a.21.21,0,0,1-.08.3.22.22,0,0,1-.22,0,27.54,27.54,0,0,0-9.56-3.67,29.19,29.19,0,0,0-5.39-.37,32.67,32.67,0,0,0-5.52.69,47.37,47.37,0,0,0-20.63,11l-.22.2a.24.24,0,0,1-.35,0l0-.06C16.44,203.93,7.49,187.06.15,173.21a.2.2,0,0,1,.08-.27h0A50.1,50.1,0,0,1,16.86,168a82,82,0,0,1,13.3-.58c3.68.12,6.55.42,8.5.66,1,.11,1.71.23,2.21.31l.57.1.19.05-.2,0-.57-.07c-.5-.06-1.24-.15-2.22-.25-2-.2-4.82-.46-8.49-.55a86.22,86.22,0,0,0-13.25.67A50.24,50.24,0,0,0,.43,173.29L.51,173c7.37,13.84,16.33,30.69,26,48.88l-.39-.06.22-.21a52.72,52.72,0,0,1,9.95-7,41.44,41.44,0,0,1,10.91-4.14,33.74,33.74,0,0,1,5.61-.7,30.22,30.22,0,0,1,5.49.39A27.9,27.9,0,0,1,68,214l-.31.29-18.91-33c-2.28-4-4.07-7.16-5.31-9.34-.61-1.07-1.07-1.9-1.4-2.48l-.35-.65A.85.85,0,0,1,41.63,168.56Z"/><path class="cls-3" d="M26.3,222.39a.37.37,0,0,1-.27-.12l-.06-.08L0,173.27A.33.33,0,0,1,0,173a.32.32,0,0,1,.16-.2,49.53,49.53,0,0,1,16.67-4.94,86,86,0,0,1,13.32-.58c2.92.1,5.7.31,8.51.66.79.1,1.54.2,2.22.32l.57.1.2,0s0,0,0,0l0,0a1.7,1.7,0,0,1,.13.21l.94,1.57.88,1.48,5.4,9.26,19.08,32.89.06,0,0,0h0a.34.34,0,0,1-.12.47.38.38,0,0,1-.36,0h0l0,0,0-.06a27.44,27.44,0,0,0-9.44-3.61,30.4,30.4,0,0,0-5.37-.37,33.22,33.22,0,0,0-5.5.69,47.06,47.06,0,0,0-20.57,11l-.21.2A.4.4,0,0,1,26.3,222.39Zm-.16-.43.05.11,0,0a.13.13,0,0,0,.18,0l.09-.08Zm.39-.32.12.23a47.28,47.28,0,0,1,20.64-11,33.85,33.85,0,0,1,5.54-.7,29.21,29.21,0,0,1,5.42.38A27.32,27.32,0,0,1,67.39,214l-.19-.34a27.53,27.53,0,0,0-8.92-3.28,29.46,29.46,0,0,0-5.45-.39,33.23,33.23,0,0,0-5.59.69,41.58,41.58,0,0,0-10.88,4.13A52.46,52.46,0,0,0,26.53,221.64ZM.41,173.44,26,221.76l.18-.17L.56,173.37l-.07,0Zm.37-.19L26.4,221.41a53.64,53.64,0,0,1,9.84-6.87,41.73,41.73,0,0,1,10.95-4.15,33.71,33.71,0,0,1,5.63-.7,29.32,29.32,0,0,1,5.51.39A27.52,27.52,0,0,1,67,213.19L48.69,181.31l-7.06-12.47-.09-.16-.12,0-.66-.07c-.51-.07-1.21-.16-2.13-.25-1.86-.19-4.76-.46-8.48-.54a83.74,83.74,0,0,0-13.23.67A49.39,49.39,0,0,0,.78,173.25ZM68,214.15l-.09.09,0,0A.08.08,0,0,0,68,214.15Zm-.36-.28.1.18.08-.07Zm-.25-.44.32.19-18.53-32ZM.39,173l-.1.05a.08.08,0,0,0,0,0,.13.13,0,0,0,0,.06l0,.1Zm.2-.1.07.13a50,50,0,0,1,16.22-4.81,83.35,83.35,0,0,1,11.43-.7,83.34,83.34,0,0,0-11.44.62A49.5,49.5,0,0,0,.59,172.9Z"/><path class="cls-6" d="M80.83,158.52S62,146.5,42,168.56l26.27,45.58s5.37-18.5,36.74-12.06Z"/><path class="cls-3" d="M68.26,214.46l-.14-.25L41.79,168.54l.06-.07C52.22,157,62.27,154.91,68.9,155.14a26,26,0,0,1,12,3.28l0,0,24.27,43.79-.26-.05c-16.16-3.32-25.24.12-30,3.59a17.89,17.89,0,0,0-6.58,8.39ZM42.1,168.57l26.09,45.27a18.73,18.73,0,0,1,6.56-8.25c4.8-3.48,13.89-6.93,30-3.69l-24-43.29a26,26,0,0,0-11.86-3.22C62.33,155.16,52.38,157.28,42.1,168.57Z"/><path class="cls-11" d="M80.83,158.52l.12.19.35.59,1.32,2.32,5,8.84C91.85,178.11,97.91,189,105.15,202a.23.23,0,0,1-.08.3.24.24,0,0,1-.14,0h0l-4.67-.77a21.32,21.32,0,0,0-2.42-.27l-2.46-.19a17.36,17.36,0,0,0-2.5-.06l-2.55,0c-.85,0-1.7.17-2.56.25a18.68,18.68,0,0,0-2.58.39l-2.58.59-2.52.88c-.85.29-1.63.76-2.45,1.13a6.94,6.94,0,0,0-1.18.68l-1.15.73c-.75.51-1.43,1.13-2.15,1.71a22.58,22.58,0,0,0-1.89,2,15.87,15.87,0,0,0-2.8,4.8h0a.26.26,0,0,1-.32.16.24.24,0,0,1-.13-.11c-.34-.58-.7-1.21-1.06-1.84-9.29-16.15-18-31.2-25.19-43.77a.21.21,0,0,1,0-.24A44.06,44.06,0,0,1,56,157.71a28.38,28.38,0,0,1,13.43-2.52,27.32,27.32,0,0,1,8.59,1.93,20.13,20.13,0,0,1,2.1,1l.51.3.17.11s-.07,0-.19-.09l-.52-.27c-.47-.23-1.17-.56-2.12-.92a27.58,27.58,0,0,0-8.56-1.8A28.23,28.23,0,0,0,56.17,158,44,44,0,0,0,42.1,168.7l0-.25c7.25,12.56,15.93,27.6,25.25,43.73L68.44,214l-.45,0a16.12,16.12,0,0,1,2.89-5A22.42,22.42,0,0,1,72.82,207c.73-.59,1.43-1.22,2.2-1.74l1.18-.75a7.59,7.59,0,0,1,1.2-.69c.84-.38,1.64-.86,2.5-1.15l2.57-.9,2.61-.59a19.49,19.49,0,0,1,2.62-.39c.87-.08,1.73-.23,2.6-.25l2.57,0a19.19,19.19,0,0,1,2.52.07l2.49.2a19.64,19.64,0,0,1,2.43.28l4.69.78-.23.32L87.39,170.63c-2.09-3.82-3.74-6.83-4.87-8.91-.55-1-1-1.81-1.27-2.37-.14-.26-.24-.46-.33-.61S80.82,158.53,80.83,158.52Z"/><path class="cls-3" d="M68.22,214.52l-.12,0a.39.39,0,0,1-.2-.16l-.06-.11h0l0,0-1-1.69L41.66,168.72a.32.32,0,0,1,0-.39A44.15,44.15,0,0,1,56,157.6a28.34,28.34,0,0,1,13.48-2.53A27.73,27.73,0,0,1,78.09,157a20.65,20.65,0,0,1,2.12,1l.51.3.19.13a1.42,1.42,0,0,1,.15.22l.78,1.36.89,1.55,5,8.84,17.48,31.36h0l0,0,.06.11a.3.3,0,0,1,0,.26.34.34,0,0,1-.16.21.34.34,0,0,1-.22,0l-.14,0,0,0v0h0l-4.48-.73a15.9,15.9,0,0,0-2-.24l-2.82-.23a19.83,19.83,0,0,0-2.44-.06l-2.6,0c-.54,0-1.1.08-1.64.14l-.91.11-.65.07a12.46,12.46,0,0,0-1.91.31l-2.58.59-2.51.88a13,13,0,0,0-1.57.7c-.28.15-.57.29-.87.43a7.27,7.27,0,0,0-1.16.66l-1.15.74a16.79,16.79,0,0,0-1.5,1.17l-.64.52c-.19.21-.4.42-.62.63a12.55,12.55,0,0,0-1.25,1.37,16,16,0,0,0-2.73,4.62v0h0s0,.09,0,.13a.4.4,0,0,1-.19.23A.47.47,0,0,1,68.22,214.52Zm-.11-.34v0a.12.12,0,0,0,.06.06.13.13,0,0,0,.16-.08v0Zm.09-.33,0,.07h.07ZM42.06,168.93l25.87,44.94c0-.1.07-.2.11-.3l-.77-1.33L42.18,168.8Zm26.26,44.62.15.27a16.32,16.32,0,0,1,2.69-4.49,13.12,13.12,0,0,1,1.28-1.4c.21-.21.42-.41.62-.63l.65-.53a17.71,17.71,0,0,1,1.52-1.19l1.16-.74a7.55,7.55,0,0,1,1.19-.68l.86-.42A12.18,12.18,0,0,1,80,203l2.52-.88,2.59-.59a13.08,13.08,0,0,1,1.94-.32l.65-.07.91-.1a15.46,15.46,0,0,1,1.67-.15l2.6,0a20.21,20.21,0,0,1,2.46.06l2.82.23a16.21,16.21,0,0,1,2.07.24l4.32.71-.12-.21-4.18-.7a18,18,0,0,0-2.07-.25l-2.84-.23a20.22,20.22,0,0,0-2.46-.07l-2.62,0c-.55,0-1.12.09-1.66.15l-.93.11-.66.07a12.71,12.71,0,0,0-1.93.31l-2.63.59-2.55.9a12.17,12.17,0,0,0-1.61.72c-.29.14-.58.29-.88.42a7.77,7.77,0,0,0-1.18.68l-1.18.76a18.27,18.27,0,0,0-1.55,1.2l-.64.53q-.3.31-.63.63A11.64,11.64,0,0,0,71,209.17,16.43,16.43,0,0,0,68.32,213.55Zm-26-45,25.8,44.68A16.41,16.41,0,0,1,70.78,209a12.15,12.15,0,0,1,1.32-1.45l.63-.63.65-.54A16.9,16.9,0,0,1,75,205.18l1.18-.76a9.32,9.32,0,0,1,1.22-.7l.87-.42a13.41,13.41,0,0,1,1.64-.73l2.56-.9,2.64-.59a12.25,12.25,0,0,1,2-.32l.65-.07.93-.11c.55-.06,1.12-.13,1.68-.15l2.63,0a20.71,20.71,0,0,1,2.49.07l2.83.23a18.33,18.33,0,0,1,2.09.25l4,.67-17-30.93-4.87-8.91-1.6-3a1.78,1.78,0,0,0-.08-.18l-.15-.08-.52-.27c-.39-.19-1.12-.54-2.11-.92a27.68,27.68,0,0,0-8.51-1.79,28,28,0,0,0-13.22,2.58A43.66,43.66,0,0,0,42.36,168.6Zm62.58,33.57H105a.09.09,0,0,0,0-.06.06.06,0,0,0,0-.07h0Zm-.31-.5.24,0L87.31,170.23l.19.34ZM42,168.36l-.13.14a.09.09,0,0,0,0,.1l.1.16Zm.13-.14.09.15a44.14,44.14,0,0,1,13.88-10.46,28.38,28.38,0,0,1,12.5-2.63,28.14,28.14,0,0,0-12.53,2.55A43.79,43.79,0,0,0,42.14,168.22Z"/><path class="cls-6" d="M7.35,149.61l28.13,54.15s22.86-1,32.53,10.14L42,168.56S26.66,149.61,7.35,149.61Z"/><path class="cls-3" d="M67.92,214c-9.53-11-32.21-10.11-32.44-10.09H35.4l0-.07L7.15,149.49h.2c19.15,0,34.54,18.8,34.69,19l26.08,45.36ZM36.79,203.62c4.86,0,22,.64,30.56,9.38L41.84,168.62c-.14-.17-15.35-18.75-34.28-18.88l28,53.89Z"/><path class="cls-11" d="M7.35,149.61l.72,0,2.17.09c.24,0,.49,0,.76.05l.82.13,1.88.31a18.5,18.5,0,0,1,2.15.52c.76.23,1.59.38,2.41.71,6.73,2.24,15.74,7.66,23.84,17l0,0h0l26.11,45.32a.25.25,0,0,1-.39.3l0,0L66.72,213a23.88,23.88,0,0,0-7.2-4.76,41.78,41.78,0,0,0-8-2.64,67.33,67.33,0,0,0-16-1.58h0a.22.22,0,0,1-.21-.12L15.11,164.76c-2.45-4.77-4.4-8.56-5.74-11.18-.66-1.28-1.16-2.27-1.52-3l-.38-.76-.12-.25a1.77,1.77,0,0,1,.16.27l.41.78c.37.69.9,1.7,1.58,3l5.88,11.19,20.31,38.81-.22-.12a67.21,67.21,0,0,1,16.11,1.57,41.41,41.41,0,0,1,8.14,2.66,24.33,24.33,0,0,1,7.35,4.85l1.13,1.13-.4.28c-9.68-16.85-18.63-32.46-26-45.36l0,0a66.15,66.15,0,0,0-12.31-11.13,47.73,47.73,0,0,0-11.29-5.89c-.82-.33-1.64-.49-2.39-.73a16.77,16.77,0,0,0-2.14-.54l-1.86-.34L11,149.9l-.73-.06Z"/><path class="cls-3" d="M68,214.27a.32.32,0,0,1-.23-.08l0,0-.05-.08-1.08-1.07a23.46,23.46,0,0,0-7.16-4.74,41.76,41.76,0,0,0-8-2.63,67,67,0,0,0-16-1.57.37.37,0,0,1-.33-.19L15,164.82l-7.63-14.9c-.16-.33-.16-.34-.09-.4l.07-.06,0,0,.68,0,2.17.09h.25l.52,0,2.71.45a10.63,10.63,0,0,1,1.64.37l.52.15.82.22a13.45,13.45,0,0,1,1.61.5c3.85,1.28,13.88,5.5,23.89,17l0,0,26.09,45.29.08.08,0,0a.36.36,0,0,1,0,.23.41.41,0,0,1-.17.22A.34.34,0,0,1,68,214.27Zm0-.25s0,0,.06,0a.13.13,0,0,0,.06-.07Zm-.56-.85.39.67.16-.12Zm-30.57-9.32a66.77,66.77,0,0,1,14.62,1.6,42.25,42.25,0,0,1,8.07,2.64,23.92,23.92,0,0,1,7.24,4.79l.43.43-.46-.8a24.08,24.08,0,0,0-7.11-4.64,41.74,41.74,0,0,0-8.11-2.65,67.39,67.39,0,0,0-15.74-1.57l.11.21ZM67,212.36l.17.16.48.48L42,168.52c-8.27-9.53-16.56-14.05-21.33-16a52.51,52.51,0,0,1,8.87,5,66.44,66.44,0,0,1,12.32,11.15h0l0,0h0Zm-30-9A67.35,67.35,0,0,1,51.61,205a43,43,0,0,1,8.16,2.67,24.58,24.58,0,0,1,6.61,4.16l-24.7-43.05a65.85,65.85,0,0,0-12.27-11.1,47.67,47.67,0,0,0-11.26-5.87,12.91,12.91,0,0,0-1.57-.5l-.82-.23-.53-.16a11.61,11.61,0,0,0-1.58-.38L11,150l-.46,0-.27,0-2.65-.22,0,.07.41.78,1.58,3,5.88,11.19,20.2,38.62Zm-1.75.16.13.26a.11.11,0,0,0,.1.06h.32ZM18.6,171.27l16.58,32.14h.23Z"/></g><g id="Stars"><path class="cls-3" d="M95.14,303.19l.6,1a6.9,6.9,0,0,0,2.85,2.61l1,.52-1,.61A6.82,6.82,0,0,0,96,310.78l-.52,1.05-.61-1a6.82,6.82,0,0,0-2.84-2.61l-1-.52,1-.61a6.78,6.78,0,0,0,2.62-2.84Z"/><path class="cls-3" d="M39.7,96.93l.6,1a7,7,0,0,0,2.84,2.62l1,.52-1,.6a6.9,6.9,0,0,0-2.62,2.84l-.52,1-.6-1a6.83,6.83,0,0,0-2.84-2.62l-1-.52,1-.6A6.9,6.9,0,0,0,39.18,98Z"/><path class="cls-3" d="M296.28,132.51l.61,1a6.82,6.82,0,0,0,2.84,2.61l1,.52-1,.61a6.83,6.83,0,0,0-2.62,2.84l-.52,1.05-.6-1a6.86,6.86,0,0,0-2.85-2.62l-1.05-.52,1-.6a6.9,6.9,0,0,0,2.61-2.85Z"/><path class="cls-3" d="M266,316.15l.61,1a6.84,6.84,0,0,0,2.84,2.62l1.05.52-1,.6a6.83,6.83,0,0,0-2.62,2.84l-.52,1-.61-1a6.78,6.78,0,0,0-2.84-2.62l-1.05-.52,1-.6a6.94,6.94,0,0,0,2.61-2.84Z"/><path class="cls-3" d="M271.75,354.74l.29.11a1.78,1.78,0,0,0,1,.1l.31-.06-.12.29a1.9,1.9,0,0,0-.1,1l.06.3-.29-.11a1.78,1.78,0,0,0-1-.1l-.31.05.12-.28a1.9,1.9,0,0,0,.1-1Z"/><path class="cls-3" d="M289.2,93.8l.29.12a1.78,1.78,0,0,0,1,.1l.31-.06-.12.29a1.79,1.79,0,0,0-.1,1l.06.31-.29-.12a1.88,1.88,0,0,0-1-.1l-.31.06.12-.29a1.87,1.87,0,0,0,.1-1Z"/><path class="cls-3" d="M51,70l.29.12a1.88,1.88,0,0,0,1,.1l.31-.06-.12.29a1.87,1.87,0,0,0-.1,1l.06.31-.29-.12a1.87,1.87,0,0,0-1-.1l-.31.06.12-.29a1.79,1.79,0,0,0,.1-1Z"/><path class="cls-3" d="M80.37,273.15l.29.12a1.9,1.9,0,0,0,1,.1l.3-.06-.11.29a1.78,1.78,0,0,0-.1,1l0,.31-.28-.12a1.9,1.9,0,0,0-1-.1l-.3.06.11-.29a1.78,1.78,0,0,0,.1-1Z"/><path class="cls-3" d="M112.25,351.68s-.09.11-.27.29l-.83.83L107.91,356l-12,11.56,0-.12c.57,12.55,1.35,29.6,2.21,48.57l0,.43-.36-.24-4.33-2.89L66.07,394.88l-.06,0,0-.06C61.9,382.55,58.44,372.24,56,365c-1.2-3.62-2.15-6.49-2.8-8.47-.32-1-.56-1.71-.73-2.24-.08-.25-.13-.44-.18-.58s-.06-.2,0-.2,0,.06.08.19l.21.57c.18.52.45,1.27.78,2.22.68,2,1.67,4.83,2.91,8.43l10.13,29.78-.07-.1,27.47,18.33,4.32,2.9-.33.19c-.82-19-1.55-36-2.08-48.58v-.07l0,0,12.09-11.47,3.28-3.08.87-.8Z"/><polygon class="cls-3" points="99.47 410.25 99.39 413.08 101.67 414.76 98.95 415.55 98.06 418.24 96.47 415.89 93.63 415.88 95.37 413.64 94.51 410.94 97.17 411.9 99.47 410.25"/><polygon class="cls-3" points="66.41 391.03 66.47 392.87 68.01 393.86 66.28 394.48 65.81 396.25 64.69 394.8 62.86 394.9 63.9 393.39 63.23 391.68 64.99 392.19 66.41 391.03"/><polygon class="cls-3" points="52.17 350.11 53.56 351.88 55.8 351.75 54.54 353.61 55.36 355.71 53.2 355.08 51.46 356.51 51.38 354.26 49.49 353.05 51.6 352.28 52.17 350.11"/><polygon class="cls-3" points="110.87 348.33 112.25 350.11 114.5 349.97 113.23 351.84 114.05 353.93 111.89 353.31 110.15 354.74 110.08 352.49 108.18 351.27 110.3 350.51 110.87 348.33"/><polygon class="cls-3" points="95.46 365.48 96.34 366.61 97.77 366.52 96.97 367.71 97.49 369.05 96.11 368.65 95 369.56 94.95 368.13 93.75 367.36 95.1 366.87 95.46 365.48"/></g><g id="Planets"><circle class="cls-3" cx="42.54" cy="269.9" r="19.94"/><g class="cls-19"><path class="cls-6" d="M39.94,276.13a3.25,3.25,0,1,1-3.25-3.25A3.25,3.25,0,0,1,39.94,276.13Z"/></g><g class="cls-19"><path class="cls-6" d="M35.33,266.74a1.9,1.9,0,1,1-1.89-1.89A1.89,1.89,0,0,1,35.33,266.74Z"/></g><path class="cls-3" d="M23.19,274.75c.09.35-17.07,16.81-12.65,20.32s23-5.49,38.89-18.3,30.35-28.37,26.39-32.49S52,252.36,52,252.36l2.37,1.51s12-7.69,15.77-4.71-7,14.65-22.26,25.78-30,18.95-32.28,15.9,8.51-13.23,8.51-13.23Z"/><g class="cls-19"><path d="M23.19,274.75c.09.35-17.07,16.81-12.65,20.32s23-5.49,38.89-18.3,30.35-28.37,26.39-32.49S52,252.36,52,252.36l2.37,1.51s12-7.69,15.77-4.71-7,14.65-22.26,25.78-30,18.95-32.28,15.9,8.51-13.23,8.51-13.23Z"/></g><g class="cls-19"><path class="cls-6" d="M31.54,255.85c.17.2-1.19,1.34-2.72,3.65a18.35,18.35,0,0,0-.4,20.17c1.44,2.36,2.74,3.56,2.58,3.75s-1.71-.79-3.48-3.14a17,17,0,0,1-2.43-4.54,17.36,17.36,0,0,1,.25-12.45,17.39,17.39,0,0,1,2.6-4.44C29.81,256.57,31.45,255.71,31.54,255.85Z"/></g><circle class="cls-3" cx="262.31" cy="83.09" r="16.45" transform="translate(15.43 204.58) rotate(-43.78)"/><g class="cls-12"><path d="M267.67,76.79a2.69,2.69,0,1,1,2.62,2.75A2.7,2.7,0,0,1,267.67,76.79Z"/></g><g class="cls-12"><path d="M273,83.06a1.56,1.56,0,1,1,1.52,1.59A1.56,1.56,0,0,1,273,83.06Z"/></g><g class="cls-12"><path d="M270.94,87.85a.57.57,0,0,1,.56.59.56.56,0,0,1-.58.56.59.59,0,0,1-.57-.59A.57.57,0,0,1,270.94,87.85Z"/></g></g></g></svg>