<svg xmlns="http://www.w3.org/2000/svg" viewBox="0 0 198.01 332.9"><defs><style>.cls-1{fill:#1f2358;}.cls-2,.cls-4{opacity:0.6;}.cls-3,.cls-4,.cls-5,.cls-6,.cls-7{fill:#fff;}.cls-5,.cls-6,.cls-7,.cls-9{stroke:#1f2358;stroke-miterlimit:10;}.cls-5{stroke-width:0.75px;}.cls-7,.cls-9{stroke-width:0.25px;}.cls-8{fill:#263238;}.cls-9{fill:#eb996e;}</style></defs><g id="Layer_2" data-name="Layer 2"><g id="Character"><path class="cls-1" d="M121.59,251.85l23.56,10.25-12.62,29.37c-2.73-1.37-1.84-19-1.84-19l-15.36-6Z"/><g class="cls-2"><path class="cls-3" d="M133.32,262.85a1.31,1.31,0,0,1,1.73-.24,1.27,1.27,0,0,1,.25,1.71,1.38,1.38,0,0,1-1.83.25,1.31,1.31,0,0,1-.07-1.81"/></g><path class="cls-4" d="M145.15,262.1l-2.42-.94-11.19,28.51s0,1.55,1,1.8Z"/><path class="cls-3" d="M130.34,272.89c.15.06.52-.63,1.28-1.14s1.53-.62,1.53-.78-.92-.29-1.83.34S130.19,272.87,130.34,272.89Z"/><path class="cls-3" d="M130.29,276.52c.13.09.64-.42,1.45-.65s1.52-.09,1.57-.24-.71-.58-1.72-.28S130.16,276.46,130.29,276.52Z"/><path class="cls-3" d="M133.23,279.85c.08-.11-.55-.62-1.49-.59s-1.55.57-1.45.68.69-.12,1.46-.14S133.15,280,133.23,279.85Z"/><path class="cls-3" d="M127,271.15c.16,0,.24-.75.64-1.53s.93-1.31.84-1.44-.86.26-1.32,1.19S126.85,271.17,127,271.15Z"/><path class="cls-3" d="M123.81,269a3,3,0,0,0,.62-1.47,6.91,6.91,0,0,0,.19-1.74,7.7,7.7,0,0,0-.09-1,2.22,2.22,0,0,0-.15-.59.69.69,0,0,0-.74-.4.89.89,0,0,0-.6.49,2.18,2.18,0,0,0-.16.59,5.4,5.4,0,0,0-.07,1,5.65,5.65,0,0,0,.3,1.73c.34,1,.78,1.42.83,1.38s-.24-.57-.46-1.48a6.18,6.18,0,0,1-.17-1.63,5.4,5.4,0,0,1,.1-1c0-.35.16-.61.33-.63s.09,0,.15.1a1.46,1.46,0,0,1,.12.44c0,.33.09.65.11,1a9.49,9.49,0,0,1-.07,1.66A11.28,11.28,0,0,0,123.81,269Z"/><path class="cls-3" d="M124.09,268.85s-.35-.54-1.25-1a4.88,4.88,0,0,0-1.7-.49,4.59,4.59,0,0,0-1,0,1.3,1.3,0,0,0-1.15.62.76.76,0,0,0,.15.79,2.24,2.24,0,0,0,.47.38,3.63,3.63,0,0,0,2.78.45c1-.25,1.44-.77,1.39-.8a12.85,12.85,0,0,1-1.46.42,3.68,3.68,0,0,1-1.58-.13,2.9,2.9,0,0,1-.84-.39c-.29-.18-.49-.4-.41-.51a.92.92,0,0,1,.7-.3,5.19,5.19,0,0,1,1,0,6.14,6.14,0,0,1,1.59.35C123.56,268.54,124,268.92,124.09,268.85Z"/><path class="cls-1" d="M103.45,292.19l9.74,20.41L116.25,331a2.3,2.3,0,0,0,2.81,1.88h0a2.3,2.3,0,0,0,1.62-1.38c1.79-4.43,8.29-20.78,7.5-22.23-.93-1.68-8.85-22.21-8.85-22.21Z"/><g class="cls-2"><path class="cls-3" d="M120.33,303.09a1.38,1.38,0,0,0,.4,1.82,1.33,1.33,0,0,0,1.81-.38,1.47,1.47,0,0,0-.43-1.93,1.41,1.41,0,0,0-1.85.6"/></g><path class="cls-3" d="M119.73,321.71a5,5,0,0,0-5.11-.18s.15-.32.6-.61a3.71,3.71,0,0,1,4,.14C119.6,321.38,119.77,321.67,119.73,321.71Z"/><path class="cls-3" d="M119.5,325.13a18.58,18.58,0,0,0-2.23-.07,18.75,18.75,0,0,0-2.13.65,3.25,3.25,0,0,1,4.36-.58Z"/><path class="cls-3" d="M120.87,316.94a23.32,23.32,0,0,0-3.43-.34,22.57,22.57,0,0,0-3.38.67,6.33,6.33,0,0,1,6.81-.33Z"/><path class="cls-3" d="M118.43,310.49c0,.14-1.35.18-2.86.79s-2.52,1.5-2.62,1.39a5.71,5.71,0,0,1,5.48-2.18Z"/><path class="cls-3" d="M115.72,304.42a11.72,11.72,0,0,0-3,.75,11.29,11.29,0,0,0-2.42,1.92c-.06,0,0-.39.4-.88a5.06,5.06,0,0,1,1.8-1.48,5,5,0,0,1,2.28-.52C115.38,304.23,115.73,304.36,115.72,304.42Z"/><path class="cls-3" d="M112.24,304a1.94,1.94,0,0,1-.38-.77,6,6,0,0,1-.3-2.32,2.61,2.61,0,0,1,.52-1.62.94.94,0,0,1,1-.24,1.5,1.5,0,0,1,.74.79,3.27,3.27,0,0,1-1.37,3.94,3.81,3.81,0,0,1-4.22-.28,1.35,1.35,0,0,1-.51-1,.91.91,0,0,1,.68-.83,3.16,3.16,0,0,1,1.67.09,6.9,6.9,0,0,1,2.13,1c.46.32.66.55.64.57a11,11,0,0,0-2.85-1.19,2.89,2.89,0,0,0-1.46-.05.49.49,0,0,0-.37.45.94.94,0,0,0,.37.62,3.39,3.39,0,0,0,3.66.2,2.84,2.84,0,0,0,1.22-3.32,1.1,1.1,0,0,0-.5-.57.51.51,0,0,0-.58.12,2.47,2.47,0,0,0-.46,1.36A8.76,8.76,0,0,0,112.24,304Z"/><path class="cls-5" d="M136.28,254.34l-26.71-18,8.84-86.79L93.11,134.8,70,129.44s-9.66,20.09-14,33c-9.14,27.37-15.55,37.17-14.09,57,.47,6.28,23.65,22,38.29,30.71a45.25,45.25,0,0,0,.78,5.19c5,22.62,20.27,52.7,20.27,52.7l23.21-10.79L117,271.57l7.8,4.55Zm-57.41-56L82,184.46c-.66,8.85-1.26,18.07-1.7,26.92A27.46,27.46,0,0,1,78.87,198.37Z"/><path class="cls-5" d="M101.27,308a2.21,2.21,0,0,1-.18-.37c-.12-.27-.27-.63-.48-1.09l-1.79-4.24c-1.54-3.68-3.75-9-6.41-15.64s-5.78-14.53-9-23.43c-.79-2.23-1.57-4.52-2.29-6.89-.32-1.2-.73-2.38-.94-3.65-.06-.31-.13-.63-.18-.94l-.11-.95c-.07-.63-.15-1.27-.22-1.91-.27-2.55-.49-5.16-.66-7.81-.08-1.32-.16-2.66-.21-4s-.11-2.71,0-4.07c.39-10.9,1.31-21.24,2.06-30.65s1.5-17.87,2.09-25,1-12.87,1.21-16.86c.12-2,.19-3.54.24-4.59,0-.5,0-.9.06-1.19a2.64,2.64,0,0,1,0-.41,1.85,1.85,0,0,1,0,.41c0,.29,0,.69,0,1.2,0,1,0,2.6-.15,4.59-.17,4-.52,9.76-1.05,16.88s-1.23,15.59-2,25-1.63,19.75-2,30.62c-.08,1.36,0,2.7,0,4s.12,2.67.2,4q.26,4,.66,7.79l.21,1.91.11.94c0,.31.12.61.17.92.2,1.22.61,2.41.92,3.6.72,2.35,1.49,4.64,2.27,6.87,3.14,8.89,6.25,16.8,8.85,23.45s4.77,12,6.26,15.7l1.7,4.27.44,1.11A2.31,2.31,0,0,1,101.27,308Z"/><path class="cls-5" d="M83.42,151.39s-.23-.15-.61-.49a6.53,6.53,0,0,1-1.13-1.82,19.46,19.46,0,0,1-1.13-6.88,58.24,58.24,0,0,1,.33-7,15.7,15.7,0,0,1,.4-2.85,16.88,16.88,0,0,1,0,2.88c-.09,1.77-.24,4.22-.19,6.92A22.25,22.25,0,0,0,82,149a7.28,7.28,0,0,0,.95,1.82A2.54,2.54,0,0,1,83.42,151.39Z"/><path class="cls-5" d="M73.43,130.73a5.93,5.93,0,0,1,.2,2.43,11.23,11.23,0,0,1-1.91,5.56,11.35,11.35,0,0,1-4.47,3.82,5.89,5.89,0,0,1-2.34.7c0-.08.88-.32,2.18-1a11.79,11.79,0,0,0,6.19-9.09C73.46,131.67,73.35,130.74,73.43,130.73Z"/><path class="cls-5" d="M114.93,181.19a1,1,0,0,1,0,.27c0,.2,0,.46-.07.77-.07.72-.17,1.71-.29,3-.29,2.61-.69,6.32-1.19,10.89-1,9.23-2.48,21.9-4.07,35.91a65.36,65.36,0,0,0,1.32,19.7,68,68,0,0,0,2.42,8.31c.89,2.56,1.73,4.95,2.5,7.14,1.5,4.34,2.73,7.87,3.59,10.35l1,2.82.23.74c.05.16.07.25.07.25s0-.08-.12-.24l-.28-.72-1-2.79c-.89-2.47-2.17-6-3.73-10.3-.79-2.18-1.64-4.56-2.56-7.12a67.37,67.37,0,0,1-2.48-8.34A65,65,0,0,1,108.82,232c1.56-14,3.11-26.71,4.21-35.9.56-4.56,1-8.27,1.34-10.87.17-1.26.3-2.25.39-3,0-.31.09-.56.12-.77A1.44,1.44,0,0,1,114.93,181.19Z"/><polyline class="cls-6" points="69.98 129.27 74.07 118.8 83.42 132.74 70.96 129.62"/><path class="cls-6" d="M175.18,164.18c.26.72.55,1.57.83,2.59a7.94,7.94,0,0,1,.27,2.7,12.22,12.22,0,0,1-.56,3.32c-.42,1,.54,1.92,1.36,1.44s2-3.08,1.94-6.42,3.34.66,4.61,2.1,5.41,5.71,6.17,5.67c1.1-.06,1.24-1.25-.06-2.66s-4.91-5.91-4.12-6.54,7.15,6.79,7.15,6.79,1.1,1.81,2,1.1c1.7-1.26-5.65-8.65-6.37-9.33-.5-.48.34-1.2.85-.66s6.18,7.55,7.92,6.27c1.33-1-6-6.13-6.36-8.23s5.16,4.47,6.39,3.49c.46-.37.75-.71-3-4-1.81-1.61-8.67-6.41-8.67-6.41L165,96.28,149,105.41Z"/><path class="cls-1" d="M167.8,97.8,156.71,72.93c-1.33-4-3.82-4.62-5.9-6.94L123,50.32C102.76,42,91.73,69.84,91.73,69.84l-18.41,42C51.67,119,67,135.64,67,135.64s-5.89-10.24-.1-13.93c6.07-3.87,12.79,6.32,19.25,16,7.62,11.42,32.4,18.84,32.4,18.84,2.9-3.06,2.09-13.75,4.36-19.49.72-1.82,17.88-41.56,17.88-41.56l6.65,16.11s8.53-10,12.66-11.58A47.39,47.39,0,0,1,167.8,97.8Z"/><path class="cls-3" d="M52.32,52.42,29.26,24.9h0a15.26,15.26,0,0,0-1.12-2.75,8.61,8.61,0,0,0-5.44-4.54c-1.47-.32-3.14-.16-4.29-1.12-.51-.43-.85-1-1.39-1.45s-1.44-.47-1.78.1a1.55,1.55,0,0,0,.1,1.37,12.71,12.71,0,0,0,4,5.17c-2.16.66-5.25,1.65-5.25,1.65S9.2,18,6.71,18.06s2,4.72,2,4.72-4-3.69-5.23-2.65,1.93,3.78,1.93,3.78A5.33,5.33,0,0,0,2.18,23C1.05,23.19.08,24.53.69,25.5a2.6,2.6,0,0,0,1,.81l6.14,3.42a7.55,7.55,0,0,0,3.28,1.2c3.12.09,5.48-1.83,8.6-1.75,0,0,17.39,36.61,19.15,38.5s40,4.46,40,4.46L101,53.08Z"/><path class="cls-1" d="M79,72.65H78.8C72.39,72.2,40.31,70,38.5,68S21.15,33.35,19.4,29.68a12.31,12.31,0,0,0-3.81.85,12.68,12.68,0,0,1-4.48.9A7.93,7.93,0,0,1,7.6,30.17L1.46,26.75a3.08,3.08,0,0,1-1.2-1A1.81,1.81,0,0,1,.19,24a2.69,2.69,0,0,1,1.91-1.5,3.92,3.92,0,0,1,1.37,0,3.25,3.25,0,0,1-.77-1.81,1.27,1.27,0,0,1,.46-1c.67-.56,1.74-.25,2.8.34a2.37,2.37,0,0,1-.42-1.89,1.13,1.13,0,0,1,1.16-.64h0c2.41,0,6.44,4.07,7.51,5.2.69-.22,2.47-.79,4.07-1.28a13.17,13.17,0,0,1-3.43-4.77,2,2,0,0,1-.07-1.82,1.36,1.36,0,0,1,.92-.63,2.06,2.06,0,0,1,1.59.38,4.75,4.75,0,0,1,.83.85,6.85,6.85,0,0,0,.58.61,4.88,4.88,0,0,0,2.68.81c.46.06.93.11,1.39.21a9.05,9.05,0,0,1,5.78,4.8,15.8,15.8,0,0,1,1.13,2.73L52.56,51.92l49.72.68Zm-59.49-44H20l.13.27C25,39.13,37.84,65.83,39.23,67.34c1.41,1.28,24.85,3.3,39.44,4.28l21-18.05-47.55-.65L28.78,25.05a15.6,15.6,0,0,0-1.09-2.66,8.07,8.07,0,0,0-5.11-4.29,12.49,12.49,0,0,0-1.29-.19,5.76,5.76,0,0,1-3.21-1,6,6,0,0,1-.7-.74,3.93,3.93,0,0,0-.67-.68,1.13,1.13,0,0,0-.8-.21.35.35,0,0,0-.25.16c-.1.17-.06.47.13.92a12.38,12.38,0,0,0,3.84,5l.78.59-.93.28c-2.16.66-5.25,1.65-5.25,1.65l-.3.1-.22-.24c-1.31-1.42-5.12-5.11-7-5.11h0a.53.53,0,0,0-.26,0c-.15.4,1.1,2.24,2.64,3.84l-.71.71c-1.73-1.6-4-3.08-4.57-2.64a.29.29,0,0,0-.11.24c0,.7,1.19,2.05,2.05,2.79l3.39,2.93L5.19,24.36a4.88,4.88,0,0,0-2.93-.86,1.66,1.66,0,0,0-1.16.92.83.83,0,0,0,0,.81,2.25,2.25,0,0,0,.83.64L8.08,29.3a7.16,7.16,0,0,0,3.06,1.13,11.72,11.72,0,0,0,4.13-.85A13.3,13.3,0,0,1,19.52,28.68Z"/><path class="cls-1" d="M72.5,76h0l17.15,1.62,27.44-29L101,48.1,72.21,50.94A74.36,74.36,0,0,1,72.5,76Z"/><path class="cls-3" d="M118.55,115.48a3.69,3.69,0,0,1-.84.58,15.1,15.1,0,0,1-2.52,1.2,18.08,18.08,0,0,1-17.56-2.71,16.29,16.29,0,0,1-2-1.9,3.82,3.82,0,0,1-.63-.82c.07-.06,1,1.07,2.89,2.44a18.79,18.79,0,0,0,17.23,2.66C117.28,116.19,118.51,115.39,118.55,115.48Z"/><path class="cls-3" d="M96.32,60.76a3.49,3.49,0,0,1-.21.53l-.69,1.48L92.88,68.2c-2.14,4.6-5,11-8,18.1s-5.86,13.53-8,18.14c-1,2.3-1.92,4.16-2.55,5.44l-.72,1.46a2.32,2.32,0,0,1-.29.49,3,3,0,0,1,.19-.53c.17-.4.38-.89.65-1.5.59-1.36,1.4-3.23,2.4-5.5l7.83-18.2c3.07-7.1,6-13.48,8.17-18,1.1-2.28,2-4.11,2.69-5.37L96,61.24A2.1,2.1,0,0,1,96.32,60.76Z"/><path class="cls-3" d="M148.67,69.19c.05.09-1,.64-2.47,1.88a17.77,17.77,0,0,0-2.32,2.39,20.15,20.15,0,0,0-2.17,3.45,19.71,19.71,0,0,0-1.36,3.84,18.42,18.42,0,0,0-.45,3.31c-.07,1.9.16,3.08.06,3.09a3.09,3.09,0,0,1-.21-.81,7.33,7.33,0,0,1-.13-1,10.36,10.36,0,0,1-.07-1.31,16.33,16.33,0,0,1,.35-3.4,17.35,17.35,0,0,1,3.63-7.48A15.85,15.85,0,0,1,146,70.79a12.9,12.9,0,0,1,1.07-.76,5.79,5.79,0,0,1,.85-.5A2.62,2.62,0,0,1,148.67,69.19Z"/><path class="cls-7" d="M153.46,29.36,137.37,59.44a10.62,10.62,0,0,1-13.69,4.68h0a10.61,10.61,0,0,1-5-14.65c1.51-2.86,2.77-5.21,2.77-5.21s-7-4.53-3.72-12.09c2.92-6.74,13.63-25.78,15.91-29.8l13.56,6.07A15.23,15.23,0,0,1,153.46,29.36Z"/><path class="cls-7" d="M121.45,44.15a19.16,19.16,0,0,0,11,1.6s-4.73,4.37-11.93.34Z"/><path class="cls-8" d="M126.62,20.1a1.17,1.17,0,0,0,.55,1.55,1.14,1.14,0,0,0,1.54-.47,1.19,1.19,0,0,0-.55-1.55A1.12,1.12,0,0,0,126.62,20.1Z"/><path class="cls-8" d="M126.68,19.14c.07.2,1.15,0,2.3.49s1.75,1.47,1.93,1.39.07-.35-.18-.79A3.17,3.17,0,0,0,129.26,19a3,3,0,0,0-1.91-.21C126.87,18.85,126.64,19.05,126.68,19.14Z"/><path class="cls-8" d="M137.42,25.42A1.18,1.18,0,0,0,138,27a1.12,1.12,0,0,0,1.54-.47A1.16,1.16,0,0,0,139,25,1.13,1.13,0,0,0,137.42,25.42Z"/><path class="cls-8" d="M137.94,24.44c.07.2,1.15,0,2.3.48s1.75,1.48,1.93,1.39.07-.34-.18-.78a3.11,3.11,0,0,0-1.47-1.28,3,3,0,0,0-1.91-.21C138.13,24.15,137.9,24.35,137.94,24.44Z"/><path class="cls-8" d="M129.91,31.13A8.74,8.74,0,0,0,128.18,30c-.28-.16-.53-.34-.49-.57s.29-.5.59-.78l1.88-1.86a42.49,42.49,0,0,0,4.59-5,43.35,43.35,0,0,0-5,4.62l-1.85,1.89a1.83,1.83,0,0,0-.67,1.09.81.81,0,0,0,.29.65,2.5,2.5,0,0,0,.47.29A7.66,7.66,0,0,0,129.91,31.13Z"/><path class="cls-8" d="M133,33.45c-.18-.09-.74,1.16-2.22,1.57s-2.74-.32-2.83-.15.19.37.75.64a3.39,3.39,0,0,0,2.33.2,2.94,2.94,0,0,0,1.78-1.35C133,33.86,133,33.48,133,33.45Z"/><path class="cls-8" d="M139.66,19.78c0,.37,1.2.73,2.48,1.5s2.21,1.63,2.52,1.43c.14-.1.08-.48-.23-1a5,5,0,0,0-3.8-2.23C140,19.47,139.68,19.61,139.66,19.78Z"/><path class="cls-8" d="M128.6,16c.08.35,1,.44,2,.85s1.69,1,2,.78c.14-.1.13-.42-.11-.82a3.09,3.09,0,0,0-3.19-1.32C128.8,15.6,128.57,15.82,128.6,16Z"/><path class="cls-7" d="M148.4,33.87c.15,0,5.85.78,3.39,5.85s-7,1.54-7,1.4S148.4,33.87,148.4,33.87Z"/><path class="cls-9" d="M147.29,40s.05.1.17.24a1,1,0,0,0,.65.34,2.45,2.45,0,0,0,2-1.47,3.26,3.26,0,0,0,.36-1.38,1.11,1.11,0,0,0-.33-1,.48.48,0,0,0-.64,0c-.14.1-.15.22-.18.22s-.07-.14.07-.33a.64.64,0,0,1,.36-.22.75.75,0,0,1,.55.11,1.39,1.39,0,0,1,.54,1.23,3.48,3.48,0,0,1-.38,1.56,2.54,2.54,0,0,1-2.36,1.56,1.07,1.07,0,0,1-.74-.52C147.24,40.08,147.26,40,147.29,40Z"/><path class="cls-1" d="M151.34,35a3,3,0,0,0-3,.16c-.67.59-1.11,1.39-1.77,2a2,2,0,0,1-2.42.38,1.73,1.73,0,0,1-.54-1.65,4.68,4.68,0,0,1,.72-1.67c1.38-2.26,3-4.42,4.13-6.79A13.51,13.51,0,0,0,150,19.7a7.4,7.4,0,0,0-4.5-6.07c-1.66-.59-3.5-.41-5.18-.9a6.87,6.87,0,0,1-4.44-4.07,12,12,0,0,0-.66-1.14c.06-.12.65-1.14,1.25-1.35C141,4.67,147,6.4,150.68,9.31A16.42,16.42,0,0,1,157,21.59c0,4.7-2.91,9.88-5.66,13.38"/><path class="cls-1" d="M151.39,34.47c1.4-2.4,3.69-4.13,5.43-6.29s2.94-5.21,1.7-7.69c-.42-.85-1.1-1.56-1.46-2.44a12.63,12.63,0,0,1-.49-2.81,9.77,9.77,0,0,0-4.84-7c-1.78-1-3.84-1.4-5.64-2.35-2.86-1.5-5-4.29-8-5.47A3.8,3.8,0,0,0,135,.29,1.86,1.86,0,0,0,134.26,3,1.63,1.63,0,0,0,132,1.9a2.45,2.45,0,0,0-1.27,2.41A5.35,5.35,0,0,0,131.83,7a13.45,13.45,0,0,0,7.7,5.3l6.9-.53,5.66,4.19,4.19,6.67-7.59,9.86Z"/></g></g></svg>