<svg xmlns="http://www.w3.org/2000/svg" width="53.395" height="59.099" viewBox="0 0 53.395 59.099">
  <g id="idea-svgrepo-com_1_" data-name="idea-svgrepo-com (1)" transform="translate(-1.724)">
    <g id="Group_8" data-name="Group 8" transform="translate(21.641 50.251)">
      <g id="Group_7" data-name="Group 7">
        <rect id="Rectangle_17" data-name="Rectangle 17" width="13.561" height="3.506" fill="#1e2358"/>
      </g>
    </g>
    <g id="Group_10" data-name="Group 10" transform="translate(32.529 28.915)">
      <g id="Group_9" data-name="Group 9">
        <path id="Path_18" data-name="Path 18" d="M295.807,275.393a.688.688,0,1,0,.688.688A.689.689,0,0,0,295.807,275.393Z" transform="translate(-295.119 -275.393)" fill="#1e2358"/>
      </g>
    </g>
    <g id="Group_12" data-name="Group 12" transform="translate(22.939 28.915)">
      <g id="Group_11" data-name="Group 11">
        <path id="Path_19" data-name="Path 19" d="M204.467,275.393a.688.688,0,1,0,.688.688A.688.688,0,0,0,204.467,275.393Z" transform="translate(-203.779 -275.393)" fill="#1e2358"/>
      </g>
    </g>
    <g id="Group_14" data-name="Group 14" transform="translate(10.107 8.383)">
      <g id="Group_13" data-name="Group 13">
        <path id="Path_20" data-name="Path 20" d="M99.881,79.844a18.316,18.316,0,0,0-8.337,34.624v5.408h4.389V105.257h-.847a4.2,4.2,0,1,1,4.136-3.506h1.318a4.193,4.193,0,1,1,4.136,3.506h-.688v14.619h4.23v-5.408a18.316,18.316,0,0,0-8.338-34.624Z" transform="translate(-81.567 -79.844)" fill="#1e2358"/>
      </g>
    </g>
    <g id="Group_16" data-name="Group 16" transform="translate(27.98 33.796)">
      <g id="Group_15" data-name="Group 15">
        <rect id="Rectangle_18" data-name="Rectangle 18" width="1.044" height="14.62" fill="#1e2358"/>
      </g>
    </g>
    <g id="Group_18" data-name="Group 18" transform="translate(26.668)">
      <g id="Group_17" data-name="Group 17">
        <path id="Path_21" data-name="Path 21" d="M239.3,0V4.948q.867-.069,1.753-.071t1.753.071V0Z" transform="translate(-239.304)" fill="#1e2358"/>
      </g>
    </g>
    <g id="Group_20" data-name="Group 20" transform="translate(13.555 2.7)">
      <g id="Group_19" data-name="Group 19">
        <path id="Path_22" data-name="Path 22" d="M117.439,25.718,114.4,27.471l2.478,4.292a21.828,21.828,0,0,1,3.033-1.758Z" transform="translate(-114.403 -25.718)" fill="#1e2358"/>
      </g>
    </g>
    <g id="Group_22" data-name="Group 22" transform="translate(4.424 11.831)">
      <g id="Group_21" data-name="Group 21">
        <path id="Path_23" data-name="Path 23" d="M29.194,112.679l-1.753,3.036,4.287,2.475a21.827,21.827,0,0,1,1.758-3.033Z" transform="translate(-27.441 -112.679)" fill="#1e2358"/>
      </g>
    </g>
    <g id="Group_24" data-name="Group 24" transform="translate(1.724 24.944)">
      <g id="Group_23" data-name="Group 23">
        <path id="Path_24" data-name="Path 24" d="M6.6,239.333q0-.885.07-1.753H1.724v3.506h4.95C6.628,240.5,6.6,239.92,6.6,239.333Z" transform="translate(-1.724 -237.58)" fill="#1e2358"/>
      </g>
    </g>
    <g id="Group_26" data-name="Group 26" transform="translate(4.424 36.055)">
      <g id="Group_25" data-name="Group 25">
        <path id="Path_25" data-name="Path 25" d="M32.84,345.45a21.785,21.785,0,0,1-1.112-2.054l-4.284,2.474,1.753,3.036,4.284-2.473Q33.148,345.95,32.84,345.45Z" transform="translate(-27.444 -343.396)" fill="#1e2358"/>
      </g>
    </g>
    <g id="Group_28" data-name="Group 28" transform="translate(46.382 36.055)">
      <g id="Group_27" data-name="Group 27">
        <path id="Path_26" data-name="Path 26" d="M428.813,343.4a21.808,21.808,0,0,1-1.112,2.054q-.307.5-.64.983l4.284,2.473,1.753-3.036Z" transform="translate(-427.061 -343.396)" fill="#1e2358"/>
      </g>
    </g>
    <g id="Group_30" data-name="Group 30" transform="translate(50.168 24.944)">
      <g id="Group_29" data-name="Group 29">
        <path id="Path_27" data-name="Path 27" d="M463.128,237.58q.069.867.071,1.753c0,.587-.027,1.171-.073,1.753h4.951V237.58Z" transform="translate(-463.125 -237.58)" fill="#1e2358"/>
      </g>
    </g>
    <g id="Group_32" data-name="Group 32" transform="translate(46.373 11.831)">
      <g id="Group_31" data-name="Group 31">
        <path id="Path_28" data-name="Path 28" d="M431.271,112.68l-4.292,2.478a21.829,21.829,0,0,1,1.758,3.033l4.287-2.475Z" transform="translate(-426.979 -112.68)" fill="#1e2358"/>
      </g>
    </g>
    <g id="Group_34" data-name="Group 34" transform="translate(37.777 2.7)">
      <g id="Group_33" data-name="Group 33">
        <path id="Path_29" data-name="Path 29" d="M347.58,25.718l-2.475,4.287a21.825,21.825,0,0,1,3.033,1.758l2.478-4.292Z" transform="translate(-345.105 -25.718)" fill="#1e2358"/>
      </g>
    </g>
    <g id="Group_37" data-name="Group 37" transform="translate(10.107 8.383)">
      <g id="Group_36" data-name="Group 36">
        <g id="Group_35" data-name="Group 35">
          <path id="Path_30" data-name="Path 30" d="M99.881,79.844a18.316,18.316,0,0,0-8.337,34.624v5.408h4.389V105.257h-.847a4.2,4.2,0,1,1,4.136-3.506h1.318a4.193,4.193,0,1,1,4.136,3.506h-.688v14.619h4.23v-5.408a18.316,18.316,0,0,0-8.338-34.624Z" transform="translate(-81.567 -79.844)" fill="#1e2358"/>
          <path id="Path_31" data-name="Path 31" d="M295.224,276.769h.583a.688.688,0,1,0-.688-.688.715.715,0,0,0,.01.115Z" transform="translate(-272.697 -254.862)" fill="#1e2358"/>
          <path id="Path_32" data-name="Path 32" d="M203.779,276.079a.688.688,0,0,0,.688.688h.583l.1-.573a.7.7,0,0,0,.01-.115.688.688,0,1,0-1.376,0Z" transform="translate(-190.947 -254.86)" fill="#1e2358"/>
        </g>
      </g>
    </g>
    <g id="Group_38" data-name="Group 38" transform="translate(21.641 50.251)">
      <g id="Group_7-2" data-name="Group 7">
        <rect id="Rectangle_17-2" data-name="Rectangle 17" width="13.561" height="3.506" fill="#1e2358"/>
      </g>
    </g>
    <g id="Group_39" data-name="Group 39" transform="translate(23.627 55.593)">
      <g id="Group_7-3" data-name="Group 7">
        <rect id="Rectangle_17-3" data-name="Rectangle 17" width="9.59" height="3.506" fill="#1e2358"/>
      </g>
    </g>
  </g>
</svg>
