<svg xmlns="http://www.w3.org/2000/svg" width="112.846" height="88.817" viewBox="0 0 112.846 88.817">
  <g id="robotic-arm-svgrepo-com" transform="translate(0 -1.879)">
    <g id="Group_2" data-name="Group 2" transform="translate(0 1.879)">
      <circle id="Ellipse_5" data-name="Ellipse 5" cx="7.098" cy="7.098" r="7.098" transform="translate(9.835 29.143)" fill="#1e2358"/>
      <path id="Path_14" data-name="Path 14" d="M33.866,21.831A16.933,16.933,0,1,0,16.933,38.764,16.953,16.953,0,0,0,33.866,21.831ZM16.933,34.754A12.924,12.924,0,1,1,29.856,21.831,12.937,12.937,0,0,1,16.933,34.754Z" transform="translate(0 14.41)" fill="#1e2358"/>
      <path id="Path_15" data-name="Path 15" d="M14.642,9.221a16.9,16.9,0,0,1-3.926,6.222,16.877,16.877,0,0,1-6.727,4.1L22.508,38.073H18.927V51.086H53.681V38.073H43.476Z" transform="translate(21.519 37.731)" fill="#1e2358"/>
      <path id="Path_16" data-name="Path 16" d="M83.807,19.831a1.7,1.7,0,0,0-2.4-.026L65.94,34.922,54.558,28.95,51.572,15.943,59.194,5.6l20.5,6.861a1.726,1.726,0,0,0,.934.045,1.66,1.66,0,0,0,1.221-1.119,1.686,1.686,0,0,0-1.062-2.155L59.1,1.971a1.678,1.678,0,0,0-1.906.6l-6.938,9.4-5.723,1.311.806,3.5-40.049,9.2A16.893,16.893,0,0,1,8.472,32.62a16.8,16.8,0,0,1-.09,7.878l40.273-9.253.806,3.5,6.094-1.4-.013-.026,9.9,5.2a1.69,1.69,0,0,0,1.177.147,1.645,1.645,0,0,0,.806-.441L83.769,22.235A1.7,1.7,0,0,0,83.807,19.831Z" transform="translate(28.559 -1.879)" fill="#1e2358"/>
    </g>
  </g>
</svg>
