<svg id="automation-svgrepo-com" xmlns="http://www.w3.org/2000/svg" width="89.438" height="88.944" viewBox="0 0 89.438 88.944">
  <path id="Path_1" data-name="Path 1" d="M32.236,21.118A11.118,11.118,0,1,1,21.118,10,11.115,11.115,0,0,1,32.236,21.118Z" transform="translate(45.59 45.59)" fill="#1e2358"/>
  <path id="Path_2" data-name="Path 2" d="M65.041,88.944h0a21.63,21.63,0,0,1-12.786-3.891L17.789,66.708c-2.78-2.224-5-3.335-7.227-5.559A36.662,36.662,0,0,1,0,35.578,35.365,35.365,0,0,1,10.562,10.562,35.365,35.365,0,0,1,35.578,0c9.45,0,18.345,3.891,25.571,10.562a70.6,70.6,0,0,1,5.559,6.671L86.165,52.811a23.613,23.613,0,0,1-3.891,28.907,23.115,23.115,0,0,1-17.233,7.227ZM35.578,5.559A30.375,30.375,0,0,0,5.559,35.578,29.394,29.394,0,0,0,14.453,56.7a29.034,29.034,0,0,0,6.115,4.447L55.59,80.05A17.152,17.152,0,0,0,65.6,82.829h0A16.1,16.1,0,0,0,78.382,77.27a17.754,17.754,0,0,0,2.78-22.236L61.705,19.457A48.61,48.61,0,0,0,57.258,13.9c-6.115-5-13.342-8.339-21.68-8.339Z" transform="translate(0 0)" fill="#1e2358"/>
  <path id="Path_3" data-name="Path 3" d="M52.031,29.8V24.236l-7.783-2.78c-.556-1.112-.556-1.668-1.112-2.78l3.335-7.227L42.581,7.559l-7.227,3.335c-1.112-.556-1.668-.556-2.78-1.112L29.8,2H24.236l-2.78,7.783c-1.112.556-1.668.556-2.78,1.112L11.45,7.559,7.559,11.45l3.335,7.227c-.556,1.112-.556,1.668-1.112,2.78L2,24.236V29.8l7.783,2.78c.556,1.112.556,1.668,1.112,2.78L7.559,42.581l3.891,3.891,7.227-3.335c1.112.556,1.668,1.112,2.78,1.112l2.78,7.783H29.8l2.78-7.783c1.112-.556,1.668-.556,2.78-1.112l7.227,3.335,3.891-3.891-3.335-7.227c.556-1.112,1.112-1.668,1.112-2.78ZM27.016,35.354a8.55,8.55,0,0,1-8.339-8.339,8.55,8.55,0,0,1,8.339-8.339,8.55,8.55,0,0,1,8.339,8.339A8.55,8.55,0,0,1,27.016,35.354Z" transform="translate(9.118 9.118)" fill="#1e2358"/>
</svg>
