<svg xmlns="http://www.w3.org/2000/svg" xmlns:xlink="http://www.w3.org/1999/xlink" width="116.312" height="57.251" viewBox="0 0 116.312 57.251">
  <defs>
    <clipPath id="clip-path">
      <rect width="116.312" height="57.251" fill="none"/>
    </clipPath>
  </defs>
  <g id="Repeat_Grid_17" data-name="Repeat Grid 17" clip-path="url(#clip-path)">
    <g transform="translate(-38.528 -1477.053)">
      <path id="Path_33" data-name="Path 33" d="M40.649,1493.183l14.009-14.009,14.009,14.009,14.009-14.009,14.009,14.009,14.009-14.009,14.009,14.009,14.009-14.009,14.009,14.009" fill="none" stroke="#1f2358" stroke-linecap="round" stroke-width="3"/>
    </g>
    <g transform="translate(-38.528 -1458.053)">
      <path id="Path_33-2" data-name="Path 33" d="M40.649,1493.183l14.009-14.009,14.009,14.009,14.009-14.009,14.009,14.009,14.009-14.009,14.009,14.009,14.009-14.009,14.009,14.009" fill="none" stroke="#1f2358" stroke-linecap="round" stroke-width="3"/>
    </g>
    <g transform="translate(-38.528 -1439.053)">
      <path id="Path_33-3" data-name="Path 33" d="M40.649,1493.183l14.009-14.009,14.009,14.009,14.009-14.009,14.009,14.009,14.009-14.009,14.009,14.009,14.009-14.009,14.009,14.009" fill="none" stroke="#1f2358" stroke-linecap="round" stroke-width="3"/>
    </g>
    <g transform="translate(-38.528 -1420.053)">
      <path id="Path_33-4" data-name="Path 33" d="M40.649,1493.183l14.009-14.009,14.009,14.009,14.009-14.009,14.009,14.009,14.009-14.009,14.009,14.009,14.009-14.009,14.009,14.009" fill="none" stroke="#1f2358" stroke-linecap="round" stroke-width="3"/>
    </g>
  </g>
</svg>
